<?xml version="1.0" encoding="UTF-8" standalone="no"?>
<!-- Created with Inkscape (http://www.inkscape.org/) -->

<svg
   width="232.45335mm"
   height="72.993004mm"
   viewBox="0 0 232.45335 72.993004"
   version="1.1"
   id="svg6835"
   inkscape:version="1.1.1 (3bf5ae0d25, 2021-09-20)"
   sodipodi:docname="logo-banner.svg"
   xmlns:inkscape="http://www.inkscape.org/namespaces/inkscape"
   xmlns:sodipodi="http://sodipodi.sourceforge.net/DTD/sodipodi-0.dtd"
   xmlns="http://www.w3.org/2000/svg"
   xmlns:svg="http://www.w3.org/2000/svg">
  <sodipodi:namedview
     id="namedview6837"
     pagecolor="#ffffff"
     bordercolor="#999999"
     borderopacity="1"
     inkscape:pageshadow="0"
     inkscape:pageopacity="0"
     inkscape:pagecheckerboard="0"
     inkscape:document-units="mm"
     showgrid="false"
     fit-margin-top="0"
     fit-margin-left="0"
     fit-margin-right="0"
     fit-margin-bottom="0"
     inkscape:zoom="0.44364478"
     inkscape:cx="396.71379"
     inkscape:cy="138.62442"
     inkscape:window-width="2048"
     inkscape:window-height="1094"
     inkscape:window-x="0"
     inkscape:window-y="0"
     inkscape:window-maximized="1"
     inkscape:current-layer="g6902" />
  <defs
     id="defs6832" />
  <g
     inkscape:label="Laag 1"
     inkscape:groupmode="layer"
     id="layer1"
     transform="translate(11.262821,-112.30172)">
    <g
       id="g6902"
       transform="translate(-210.85503,-1102.6396)">
      <g
         id="g938"
         transform="translate(-12.423197,696.6396)"
         style="fill:#ffbe58;fill-opacity:1">
        <g
           aria-label="U"
           id="text936"
           style="font-size:40.2705px;line-height:1.25;font-family:'Fugaz One';-inkscape-font-specification:'Fugaz One, Normal';letter-spacing:0px;word-spacing:0px;stroke-width:1.00677">
          <path
             d="m 280.67601,557.89647 q -3.18137,2.65786 -9.02059,2.65786 -5.83922,0 -8.09437,-2.69813 -1.61082,-1.85244 -1.61082,-5.11435 0,-1.44974 0.32217,-3.18137 l 3.26191,-18.5647 h 7.24869 l -3.26191,18.40362 q -0.16109,1.00676 -0.16109,2.09406 0,2.81894 3.38273,2.81894 2.01352,0 3.22164,-1.04703 1.20811,-1.04704 1.69136,-3.86597 l 3.26191,-18.40362 h 7.24869 l -3.26191,18.5647 q -1.00677,5.63787 -4.22841,8.33599 z"
             id="path7848" />
        </g>
      </g>
      <g
         aria-label="Q"
         id="text942"
         style="font-size:45.7313px;line-height:1.25;font-family:'Fugaz One';-inkscape-font-specification:'Fugaz One, Normal';letter-spacing:0px;word-spacing:0px;fill:#ff5758;stroke-width:1.14329">
        <path
           d="m 236.54379,1227.7238 q 11.06698,0 11.06698,8.5975 0,1.3719 -0.27439,2.9725 l -1.87498,10.5182 q -0.91463,5.3049 -3.7957,8.1859 -2.83534,2.8354 -7.95725,3.4299 0.50305,1.6463 2.42376,2.6067 1.96645,1.006 5.07618,1.006 l -0.22866,6.4939 q -3.47558,0 -6.128,-0.7774 -2.60668,-0.7775 -4.07008,-1.9208 -1.41767,-1.0975 -2.3323,-2.6066 -1.37194,-2.3323 -1.4634,-4.8933 -7.54566,-1.1433 -7.54566,-8.2774 0,-1.5091 0.32012,-3.2469 l 1.87498,-10.5182 q 2.05791,-11.57 14.9084,-11.57 z m -4.75605,26.7985 q 2.28656,0 3.6585,-1.1432 1.37194,-1.1433 1.92072,-4.2073 l 1.64632,-9.2377 q 0.1372,-0.8689 0.1372,-1.5549 0,-3.567 -3.84143,-3.567 -4.71033,0.091 -5.57922,5.1219 l -1.6006,9.2377 q -0.18292,1.0975 -0.18292,2.2865 0,3.064 3.84143,3.064 z"
           id="path7851" />
      </g>
      <path
         id="rect944"
         style="fill:#ff5758;stroke-width:0.0685311;stroke-linejoin:round"
         d="m 212.74886,1227.7068 h 22.9672 c 1.41705,0 2.55784,1.1408 2.55784,2.5578 0,1.4171 -1.14079,2.5579 -2.55784,2.5579 h -22.9672 c -1.41705,0 -2.55785,-1.1408 -2.55785,-2.5579 0,-1.417 1.1408,-2.5578 2.55785,-2.5578 z" />
      <path
         id="rect946"
         style="fill:#ff5758;stroke-width:0.0660158;stroke-linejoin:round"
         d="m 204.59302,1236.8833 h 20.94359 c 1.41704,0 2.55784,1.1408 2.55784,2.5578 0,1.4171 -1.1408,2.5579 -2.55784,2.5579 h -20.94359 c -1.41705,0 -2.55785,-1.1408 -2.55785,-2.5579 0,-1.417 1.1408,-2.5578 2.55785,-2.5578 z" />
      <path
         id="rect948"
         style="fill:#ff5758;stroke-width:0.0583317;stroke-linejoin:round"
         d="m 209.85892,1246.9862 h 15.23021 c 1.41705,0 2.55785,1.1408 2.55785,2.5579 0,1.417 -1.1408,2.5578 -2.55785,2.5578 h -15.23021 c -1.41705,0 -2.55785,-1.1408 -2.55785,-2.5578 0,-1.4171 1.1408,-2.5579 2.55785,-2.5579 z" />
      <path
         id="rect950"
         style="fill:#ff5758;stroke-width:0.0685311;stroke-linejoin:round"
         d="m 202.15006,1256.161 h 22.9672 c 1.41704,0 2.55784,1.1408 2.55784,2.5579 0,1.417 -1.1408,2.5578 -2.55784,2.5578 h -22.9672 c -1.41705,0 -2.55785,-1.1408 -2.55785,-2.5578 0,-1.4171 1.1408,-2.5579 2.55785,-2.5579 z" />
      <g
         id="g960"
         transform="translate(-28.298205,696.6396)"
         style="fill:#ffde59;fill-opacity:1">
        <g
           aria-label="I"
           id="text954"
           style="font-size:40.2705px;line-height:1.25;font-family:'Fugaz One';-inkscape-font-specification:'Fugaz One, Normal';letter-spacing:0px;word-spacing:0px;stroke-width:1.00677">
          <path
             d="m 315.39887,530.99578 -5.07408,28.99476 h -7.28896 l 5.11435,-28.99476 z"
             id="path7858" />
        </g>
        <g
           aria-label="I"
           id="text958"
           style="font-size:40.2705px;line-height:1.25;font-family:'Fugaz One';-inkscape-font-specification:'Fugaz One, Normal';letter-spacing:0px;word-spacing:0px;stroke-width:1.00677">
          <path
             d="m 315.39887,530.99578 -5.07408,28.99476 h -7.28896 l 5.11435,-28.99476 z"
             id="path7861" />
        </g>
      </g>
      <g
         id="g966"
         transform="translate(-14.539864,696.6396)"
         style="fill:#7ed758;fill-opacity:1">
        <g
           aria-label="Q"
           id="text964"
           style="font-size:40.2705px;line-height:1.25;font-family:'Fugaz One';-inkscape-font-specification:'Fugaz One, Normal';letter-spacing:0px;word-spacing:0px;stroke-width:1.00677">
          <path
             d="m 318.74133,530.71389 q 9.74546,0 9.74546,7.57085 0,1.20811 -0.24163,2.61758 l -1.65109,9.26222 q -0.80541,4.67138 -3.34245,7.20842 -2.49677,2.49677 -7.00707,3.02028 0.44298,1.44974 2.13434,2.29542 1.73163,0.88595 4.47003,0.88595 l -0.20136,5.71842 q -3.06055,0 -5.39624,-0.6846 -2.29542,-0.6846 -3.58408,-1.69136 -1.24838,-0.9665 -2.05379,-2.29542 -1.20812,-2.0538 -1.28866,-4.30895 -6.64463,-1.00676 -6.64463,-7.28896 0,-1.32892 0.28189,-2.8592 l 1.65109,-9.26222 q 1.81217,-10.18843 13.12819,-10.18843 z m -4.18814,23.59851 q 2.01353,0 3.22164,-1.00676 1.20812,-1.00677 1.69136,-3.70489 l 1.44974,-8.13464 q 0.12081,-0.76514 0.12081,-1.3692 0,-3.1411 -3.38272,-3.1411 -4.14786,0.0805 -4.913,4.5103 l -1.40947,8.13464 q -0.16108,0.96649 -0.16108,2.01353 0,2.69812 3.38272,2.69812 z"
             id="path7864" />
        </g>
      </g>
      <g
         id="g972"
         transform="translate(12.976809,696.6396)"
         style="fill:#37b6ff;fill-opacity:1">
        <g
           aria-label="R"
           id="text970"
           style="font-size:40.2705px;line-height:1.25;font-family:'Fugaz One';-inkscape-font-specification:'Fugaz One, Normal';letter-spacing:0px;word-spacing:0px;stroke-width:1.00677">
          <path
             d="m 319.82863,530.99578 q 4.59084,0 6.52382,2.01352 1.44974,1.53028 1.44974,3.86597 0,0.80541 -0.16108,1.69136 l -0.56379,3.1411 q -0.48325,2.61758 -1.69136,4.2284 -1.16785,1.61082 -2.61758,2.29542 l 3.66461,11.75899 h -8.13464 l -3.38272,-10.83276 h -2.49677 l -1.65109,10.83276 h -7.73194 l 5.11435,-28.99476 z m -2.53704,6.2822 h -3.02029 l -1.04703,7.00706 h 2.81893 q 2.13434,0 3.06056,-1.00676 0.92622,-1.04703 0.92622,-2.73839 0,-3.26191 -2.73839,-3.26191 z"
             id="path7867" />
        </g>
      </g>
      <path
         id="path974"
         style="fill:#9d98f1;stroke-width:0.509994;stroke-linejoin:round"
         inkscape:transform-center-x="4.5033284e-06"
         inkscape:transform-center-y="-1.5755001e-05"
         transform="matrix(0.26458333,0,0,0.26458333,-11.526003,-28.833104)"
         d="m 1358.611,4736.1239 -6.3529,21.1305 -8.0596,-20.5402 -22.0594,0.4876 17.0443,-14.0123 -7.2805,-20.8291 18.5935,11.88 17.5598,-13.3606 -5.5528,21.3546 18.133,12.5717 z" />
      <g
         aria-label="CMS with a Hugo Heart"
         id="text978"
         style="font-size:19.4481px;line-height:1.25;font-family:Playball;-inkscape-font-specification:'Playball, Normal';letter-spacing:0px;word-spacing:0px;fill:#28677f;stroke-width:0.486204">
        <path
           d="m 251.43149,1283.8308 q -1.63364,-0.2723 -2.39212,-1.4197 -0.73903,-1.1475 -0.73903,-2.7228 0,-1.1474 0.36952,-2.3921 0.36951,-1.2641 1.05019,-2.4699 0.70013,-1.2058 1.67254,-2.2365 0.9724,-1.0502 2.19763,-1.7893 1.22523,-0.739 2.66439,-1.0307 0.87517,-0.175 1.67254,-0.175 1.55585,0 2.48936,0.6223 0.93351,0.6029 0.93351,1.5558 0,0.1945 -0.0389,0.389 -0.0195,0.175 -0.11669,0.389 -0.21393,0.564 -0.71958,1.0113 -0.4862,0.4278 -1.12799,0.6612 -0.62234,0.2334 -1.28357,0.1945 -0.31117,-0.039 -0.54455,-0.2139 -0.21393,-0.1945 -0.21393,-0.4668 0,-0.2723 0.23338,-0.5834 0.21393,0.078 0.4862,0.078 0.4862,0 0.95296,-0.2334 0.46675,-0.2334 0.77792,-0.6418 0.31117,-0.4084 0.31117,-0.9141 0,-0.6807 -0.46675,-0.8946 -0.46676,-0.2334 -1.0502,-0.2334 -0.38896,0 -0.77792,0.078 -0.36952,0.058 -0.6029,0.1167 -1.10854,0.2917 -2.27542,1.0697 -1.14744,0.7584 -2.1004,1.867 -0.95295,1.0891 -1.47805,2.3921 -0.38897,0.953 -0.60289,1.9254 -0.21393,0.9724 -0.21393,1.8475 0,1.128 0.36951,1.9837 0.38896,0.8558 1.22523,1.1864 0.75848,0.2917 1.55585,0.2917 1.28357,0 2.5866,-0.6223 1.32247,-0.6224 2.43101,-1.5753 0.68068,-0.6029 1.22523,-1.2447 0.54455,-0.6418 0.83627,-1.3614 0.36951,0.2334 0.36951,0.6807 0,0.3501 -0.21393,0.7585 -0.19448,0.4084 -0.46675,0.7584 -0.25283,0.3501 -0.44731,0.5446 -1.36137,1.4197 -3.26728,2.1782 -1.88647,0.7585 -3.83128,0.7585 -0.73902,0 -1.43915,-0.1167 z"
           id="path7871" />
        <path
           d="m 274.53577,1283.5196 q -0.75848,0 -1.03075,-0.389 -0.27227,-0.4084 -0.27227,-1.0113 0,-0.5445 0.15558,-1.2252 0.17503,-0.8363 0.62234,-1.9837 0.46675,-1.1474 1.03075,-2.3921 0.58344,-1.2641 1.14744,-2.4116 0.58344,-1.1474 1.0113,-1.9642 -0.25283,0.2333 -0.5251,0.4862 -0.25283,0.2528 -0.5251,0.564 -1.12799,1.2641 -2.0615,2.4115 -0.91406,1.128 -1.76978,2.2366 -0.83626,1.089 -1.73088,2.2365 -0.4862,0.6418 -0.77792,0.9724 -0.27227,0.3112 -0.50565,0.4278 -0.21393,0.097 -0.54455,0.097 -0.4862,0 -1.10854,-0.2917 0.27227,-0.3307 0.36951,-1.4197 0.11669,-1.0891 0.11669,-2.4894 0,-1.4197 -0.0972,-2.9367 -0.0972,-1.5169 -0.29172,-2.6838 -0.11669,0.1945 -0.42786,0.8557 -0.29172,0.6613 -0.71958,1.6337 -0.40841,0.9529 -0.87516,2.0809 -0.46676,1.1085 -0.91406,2.2365 -0.42786,1.1086 -0.77793,2.1004 -0.33061,0.9919 -0.50565,1.7115 -0.17503,0.7195 -0.11668,0.9918 h -1.78923 q 0.42786,-1.0891 0.97241,-2.4116 0.56399,-1.3419 1.16688,-2.7421 0.60289,-1.4003 1.18634,-2.7228 0.60289,-1.3224 1.08909,-2.4115 0.50565,-1.1086 0.83627,-1.8282 0.33061,-0.7195 0.42786,-0.8946 -0.85572,-0.019 -1.75033,0.1751 -0.89462,0.175 -1.67254,0.5056 -0.77792,0.3306 -1.32247,0.7585 -0.5251,0.4279 -0.68068,0.8946 -0.0195,0.058 -0.0778,0.058 -0.15558,0 -0.15558,-0.2529 0,-0.039 0,-0.078 0.0195,-0.058 0.0389,-0.1167 0.17504,-0.5056 0.42786,-0.8946 0.27228,-0.3889 0.5251,-0.6612 0.64179,-0.6612 1.43916,-0.7974 0.79737,-0.1556 1.69199,-0.1556 h 1.88646 q 0.42786,0 0.83627,0 0.40841,0 0.71958,0.214 0.31117,0.1945 0.40841,0.7779 0.0778,0.4084 0.13614,1.2447 0.0778,0.8168 0.11668,1.8281 0.0584,1.0113 0.0972,2.0031 0.0389,0.9919 0.0584,1.7115 0,0.039 0,0.2334 0.0194,0.175 0.0194,0.4473 0,0.2528 -0.0194,0.5834 0,0.3112 -0.0389,0.6029 0.40841,-0.5057 1.0113,-1.2447 0.62234,-0.7585 1.34192,-1.6336 0.71958,-0.8946 1.45861,-1.7892 0.73903,-0.8947 1.41971,-1.7115 0.68069,-0.8168 1.18634,-1.4197 0.52509,-0.6223 0.77792,-0.9335 0.44731,-0.5056 1.12799,-0.7001 0.68068,-0.214 1.36137,-0.214 h 1.20578 q -0.40841,0.3112 -0.89461,1.0502 -0.48621,0.7391 -0.95296,1.5948 -0.44731,0.8557 -0.79737,1.5558 -0.50565,1.0502 -1.03075,2.2755 -0.5251,1.2252 -0.93351,2.431 -0.40841,1.2058 -0.60289,2.2365 -0.0584,0.3112 -0.0584,0.6612 0,0.4279 0.13614,0.7585 0.15559,0.3112 0.54455,0.3112 0.31117,0 0.75847,-0.2528 h 0.0195 q 0.0389,0 0.0583,0.078 0.0194,0.058 -0.0195,0.097 -0.36952,0.389 -1.12799,0.6612 -0.75848,0.2723 -1.43916,0.2723 z"
           id="path7873" />
        <path
           d="m 282.23718,1283.753 q -0.97241,0 -1.80867,-0.1751 -0.83627,-0.175 -1.40027,-0.5834 -0.38896,-0.2917 -0.60289,-0.739 -0.19448,-0.4473 -0.19448,-0.9141 0,-0.5834 0.33062,-1.0891 0.33062,-0.5056 1.0502,-0.6807 0.0972,-0.019 0.17503,-0.019 0.0972,-0.02 0.17503,-0.02 0.38896,0 0.68069,0.1751 0.31117,0.175 0.42785,0.4084 -0.0778,0.058 -0.21393,0.2139 -0.13613,0.1361 -0.17503,0.2334 -0.29172,0.4862 -0.29172,0.9724 0,0.6612 0.50565,1.0891 0.5251,0.4084 1.36137,0.4084 0.75847,0 1.41971,-0.3695 0.68068,-0.389 1.08909,-1.0308 0.42786,-0.6418 0.42786,-1.478 0,-0.6224 -0.29172,-1.3225 -0.25283,-0.6029 -0.70013,-1.0696 -0.42786,-0.4668 -0.81682,-0.8752 -0.5251,-0.564 -1.0113,-1.0891 -0.46676,-0.5445 -0.77793,-1.1669 -0.29172,-0.6418 -0.29172,-1.4391 0,-0.7585 0.31117,-1.4781 0.33062,-0.7196 0.93351,-1.2252 0.68068,-0.5835 1.55585,-0.8168 0.87516,-0.2334 1.82812,-0.2334 1.18633,0 1.86702,0.3111 0.70013,0.2918 0.99185,0.7585 0.31117,0.4668 0.31117,0.9919 0,0.5056 -0.23338,0.9724 -0.21393,0.4667 -0.60289,0.7974 -0.38896,0.3111 -0.85572,0.3889 -0.0778,0.02 -0.15558,0.02 -0.0778,0 -0.17503,0 -0.42786,0 -0.75848,-0.1945 -0.31117,-0.1945 -0.31117,-0.6613 0,-0.058 0,-0.1361 0.0195,-0.078 0.0389,-0.1556 0.35006,0 0.71958,-0.2528 0.36951,-0.2528 0.4862,-0.564 0.0972,-0.2528 0.0972,-0.4668 0,-0.5251 -0.4862,-0.8168 -0.46676,-0.3111 -1.10854,-0.3111 -0.75848,0 -1.36137,0.3306 -0.58344,0.3111 -0.91406,0.8362 -0.33062,0.5057 -0.33062,1.1086 0,0.6029 0.36951,1.1669 0.31117,0.4473 0.77793,0.9335 0.46675,0.4667 0.95296,0.914 0.4862,0.4279 0.83626,0.7974 0.79738,0.7779 1.14744,1.5948 0.35007,0.7973 0.35007,1.5753 0,0.8946 -0.42786,1.6919 -0.40841,0.778 -1.14744,1.3809 -0.73903,0.6028 -1.71143,0.9529 -0.97241,0.3501 -2.0615,0.3501 z"
           id="path7875" />
        <path
           d="m 294.78117,1283.4807 q -0.50565,0 -0.85572,-0.4862 -0.33062,-0.5057 -0.25282,-1.4003 0.0389,-0.564 0.29172,-1.4391 0.25282,-0.8752 0.62234,-1.7698 0.38896,-0.9141 0.77792,-1.5364 0.50565,-0.7974 1.12799,-1.0307 0.62234,-0.2334 1.59474,-0.2334 0.0584,0 0.0584,0.058 0,0.097 -0.11669,0.2139 -0.27227,0.2334 -0.62234,0.8169 -0.33062,0.564 -0.64179,1.2641 -0.31117,0.7001 -0.54454,1.3419 -0.0389,0.1361 -0.17504,0.5251 -0.13613,0.389 -0.25282,0.8557 -0.11669,0.4473 -0.11669,0.8363 0,0.3112 0.11669,0.5251 0.11669,0.1945 0.38896,0.1945 0.36951,-0.019 0.79737,-0.4473 0.42786,-0.4473 0.85572,-1.128 0.42786,-0.6807 0.81682,-1.3808 0.38896,-0.7196 0.68068,-1.2836 0.31117,-0.5835 0.44731,-0.8168 0.29172,-0.4668 0.62234,-0.7974 0.33062,-0.3501 0.75847,-0.3501 0.15559,0 0.46676,0.019 0.31117,0 0.58344,0 0.29172,0 0.38896,-0.019 -0.0778,0.039 -0.23337,0.1751 -0.15559,0.1167 -0.23338,0.2722 -0.31117,0.6029 -0.62234,1.2642 -0.31117,0.6612 -0.62234,1.5558 -0.0389,0.1361 -0.19448,0.5251 -0.13614,0.389 -0.25283,0.8557 -0.11668,0.4473 -0.11668,0.8363 0,0.4668 0.15558,0.6612 0.17503,0.1945 0.42786,0.1945 0.35006,0 0.77792,-0.2723 0.44731,-0.2917 0.79737,-0.7001 0.6029,-0.7001 0.95296,-1.4586 0.36951,-0.7779 0.50565,-1.1669 -0.0389,-0.2139 -0.0778,-0.4667 -0.0195,-0.2529 -0.0195,-0.5057 0,-0.3501 0.0584,-0.7196 0.0778,-0.3695 0.21392,-0.7196 0.25283,-0.6223 0.71958,-0.7584 0.0778,-0.02 0.13614,-0.02 0.0778,-0.019 0.15559,-0.019 0.36951,0 0.4862,0.2528 0.13613,0.2528 0.13613,0.6029 0,0.3501 -0.0778,0.7001 -0.0778,0.3306 -0.15558,0.5251 -0.13614,0.3695 -0.31117,0.7196 -0.17503,0.3306 -0.33062,0.6612 0,0.1167 0.0583,0.3307 0.21393,0.9335 0.95296,0.9335 0.44731,0 0.93351,-0.4279 0.27227,-0.2334 0.4862,-0.5834 0.23338,-0.3695 0.40841,-0.6807 0.0972,-0.1556 0.11669,-0.078 0.0389,0.078 0.0389,0.2528 0,0.1945 -0.0389,0.4473 -0.0389,0.2528 -0.13614,0.4084 -0.29172,0.5057 -0.60289,0.778 -0.31117,0.2528 -0.70013,0.4084 -0.15558,0.058 -0.33062,0.097 -0.17503,0.039 -0.33061,0.039 -0.46676,0 -0.85572,-0.2528 -0.36951,-0.2723 -0.54455,-0.8363 l -0.0583,-0.1945 q -0.19448,0.3306 -0.44731,0.7585 -0.25282,0.4279 -0.4862,0.7779 -0.21393,0.3501 -0.33062,0.5057 -0.66123,0.8362 -1.43916,1.3224 -0.75847,0.4863 -1.61419,0.4863 -0.0972,0 -0.19448,0 -0.0972,0 -0.19448,-0.019 -0.73903,-0.097 -0.99185,-0.6612 -0.25283,-0.5835 -0.25283,-1.1669 0,-0.2139 0.0195,-0.4084 0.0389,-0.214 0.0583,-0.3501 -0.29172,0.4084 -0.62234,0.7585 -0.31117,0.35 -0.64178,0.7001 -0.73903,0.739 -1.32247,0.9335 -0.58345,0.1945 -1.03075,0.1945 z"
           id="path7877" />
        <path
           d="m 311.31201,1274.0289 q -0.50565,-0.175 -0.50565,-0.6612 0,-0.4473 0.35007,-0.9141 0.36951,-0.4862 0.79737,-0.6223 0.0972,-0.039 0.15558,-0.039 0.0778,0 0.15559,0 0.33062,0 0.54455,0.1945 0.21393,0.1945 0.21393,0.4473 0,0.35 -0.36952,0.5834 -0.29172,-0.039 -0.56399,0.1362 -0.27228,0.175 -0.48621,0.4278 -0.19448,0.2528 -0.29172,0.4473 z m -3.34507,9.4518 q -0.25283,0 -0.4862,-0.1167 -0.23338,-0.097 -0.38896,-0.4084 -0.21393,-0.4668 -0.21393,-1.1085 0,-0.7002 0.21393,-1.5559 0.21392,-0.8752 0.56399,-1.7892 0.13614,-0.3306 0.35007,-0.8168 0.21392,-0.4862 0.50565,-0.9724 0.29172,-0.4862 0.66123,-0.7974 0.38896,-0.3306 0.83627,-0.3306 0.21393,0 0.60289,0.019 0.38896,0.02 0.564,0 -0.11669,0.078 -0.27228,0.3112 -0.15558,0.2334 -0.29172,0.4862 -0.13614,0.2334 -0.21393,0.3695 -0.50565,1.0113 -0.95295,2.0032 -0.44731,0.9918 -0.68069,1.9059 -0.0389,0.1556 -0.0583,0.3111 -0.0195,0.1556 -0.0195,0.2918 0,0.564 0.36951,0.564 0.15559,0 0.33062,-0.078 0.19448,-0.097 0.44731,-0.2918 0.4473,-0.35 0.77792,-0.7973 0.38896,-0.5057 0.73903,-1.0697 0.35006,-0.5834 0.60289,-1.0696 0.0972,-0.1556 0.13614,-0.1556 0.11669,0 0.11669,0.3306 0,0.1556 -0.0584,0.3695 -0.0389,0.1945 -0.13614,0.3695 -0.27227,0.4668 -0.64178,1.0308 -0.36952,0.564 -0.75848,1.0891 -0.27227,0.3695 -0.71958,0.8168 -0.4473,0.4473 -0.95296,0.7779 -0.50565,0.3112 -0.9724,0.3112 z"
           id="path7879" />
        <path
           d="m 312.84839,1283.4807 q -0.56399,0 -0.85571,-0.4473 -0.13614,-0.2139 -0.19448,-0.5057 -0.0584,-0.2917 -0.0584,-0.6028 0,-0.3112 0.0389,-0.6224 0.0389,-0.3306 0.0972,-0.6418 0.0972,-0.5056 0.21393,-0.914 0.13613,-0.4279 0.27227,-0.8169 v -0.019 q -0.15558,0.2917 -0.38896,0.6418 -0.23338,0.3306 -0.33062,0.4862 -0.13614,0.2139 -0.21393,0.2139 -0.0778,0 -0.0778,-0.175 0,-0.389 0.23338,-0.8557 0.15558,-0.3112 0.42786,-0.7974 0.27227,-0.5057 0.56399,-1.0891 0.29172,-0.5834 0.50565,-1.128 h -1.30302 q -0.0972,0 -0.0389,-0.1556 0.0584,-0.1556 0.17503,-0.2917 0.11669,-0.1556 0.17504,-0.1556 h 1.47805 q 0.21393,-0.5056 0.48621,-1.0891 0.29172,-0.5834 0.64178,-1.0891 0.36952,-0.5251 0.79738,-0.8557 0.42785,-0.3306 0.91406,-0.3306 0.21392,0 0.52509,0 0.33062,0 0.40841,-0.019 -0.40841,0.2722 -0.95295,1.089 -0.54455,0.7974 -1.18634,2.2949 h 1.96426 q 0.0584,0 -0.0389,0.1556 -0.0973,0.1361 -0.25283,0.2917 -0.13614,0.1556 -0.27227,0.1556 h -1.67254 q -0.25283,0.6418 -0.56399,1.4003 -0.29173,0.7585 -0.54455,1.4975 -0.23338,0.7196 -0.35007,1.3225 -0.0778,0.3695 -0.0778,0.6806 0,0.7391 0.46675,0.7391 0.31117,0 0.73903,-0.3112 0.42786,-0.3112 0.85572,-0.8557 0.38896,-0.5057 0.73903,-1.0891 0.36951,-0.5835 0.62234,-1.0697 0.0778,-0.1361 0.13613,-0.1361 0.11669,0 0.11669,0.3112 0,0.1556 -0.0583,0.3695 -0.0389,0.1945 -0.15559,0.3889 -0.27227,0.4668 -0.64179,1.0308 -0.36951,0.5445 -0.75847,1.0891 -0.27227,0.3501 -0.71958,0.7974 -0.42786,0.4473 -0.93351,0.7779 -0.4862,0.3306 -0.95296,0.3306 z"
           id="path7881" />
        <path
           d="m 321.32774,1283.4807 q -0.66124,0 -0.91406,-0.389 -0.23338,-0.4084 -0.23338,-0.9335 0,-0.564 0.17504,-1.303 0.19448,-0.7585 0.46675,-1.5558 0.29172,-0.8169 0.58344,-1.517 0.0972,-0.2334 0.17504,-0.5056 0.0972,-0.2723 0.0972,-0.4862 0,-0.389 -0.35007,-0.389 -0.13614,0 -0.31117,0.058 -0.17503,0.039 -0.40841,0.1751 -0.40841,0.1945 -0.77792,0.5445 -0.36952,0.3306 -0.50565,0.5057 -0.25283,0.3111 -0.48621,0.7001 -0.23337,0.3695 -0.40841,0.7585 -0.38896,0.8362 -0.62234,1.5947 -0.21392,0.739 -0.40841,1.2641 -0.11668,0.3307 -0.23337,0.6807 -0.11669,0.3501 -0.21393,0.6807 h -1.88647 q 0,0 0.13614,-0.4862 0.13614,-0.4862 0.33062,-0.9724 0.89461,-2.3143 1.69198,-4.7259 0.79737,-2.4115 1.92536,-4.6286 0.50565,-0.9919 1.0891,-1.8282 0.60289,-0.8362 1.26412,-1.3224 0.68069,-0.5057 1.41971,-0.5057 0.58345,0 0.79738,0.2723 0.23337,0.2528 0.23337,0.6418 0,0.4278 -0.17503,0.8946 -0.17503,0.4668 -0.35006,0.7974 -0.35007,0.7001 -0.91407,1.5753 -0.56399,0.8751 -1.18633,1.6336 -0.13614,0.175 -0.46675,0.564 -0.33062,0.3695 -0.68069,0.7585 -0.33062,0.3889 -0.5251,0.6029 0.64179,-0.4668 1.10855,-0.7196 0.46675,-0.2528 0.79737,-0.3501 0.56399,-0.1556 0.93351,-0.1556 1.10854,0 1.10854,0.9724 0,0.4085 -0.23338,0.9725 -0.11669,0.3111 -0.33062,0.8362 -0.21393,0.5251 -0.4473,1.128 -0.21393,0.5835 -0.36952,1.128 -0.13613,0.5445 -0.13613,0.8946 0,0.2139 0.0583,0.389 0.0778,0.1556 0.27227,0.1556 0.13614,0 0.38897,-0.1362 0.54454,-0.3111 1.0113,-0.8751 0.4862,-0.564 0.85571,-1.2058 0.38897,-0.6418 0.66124,-1.1669 0.0583,-0.1361 0.13614,-0.1361 0.0972,0 0.0972,0.3306 0,0.1556 -0.0389,0.3695 -0.0389,0.1945 -0.15559,0.3889 -0.27227,0.4668 -0.71957,1.1475 -0.42786,0.6807 -0.97241,1.3419 -0.54455,0.6418 -1.14744,1.0891 -0.60289,0.4473 -1.20578,0.4473 z m -2.23653,-6.9819 q 0.9724,-1.1474 1.96426,-2.4504 1.0113,-1.3225 1.67253,-2.6839 0.0389,-0.097 0.17504,-0.3889 0.13613,-0.2917 0.25282,-0.6418 0.11669,-0.3695 0.11669,-0.6224 0,-0.3306 -0.25283,-0.3306 -0.25282,0 -0.60289,0.3501 -0.33061,0.3501 -0.68068,0.9335 -0.44731,0.739 -0.91406,1.7114 -0.46675,0.953 -0.91406,2.0226 -0.42786,1.0697 -0.81682,2.1004 z"
           id="path7883" />
        <path
           d="m 336.4,1283.4807 q -0.60289,0 -0.83627,-0.4668 -0.21393,-0.4667 -0.21393,-1.1474 0,-0.6223 0.11669,-1.2252 0.0583,-0.2723 0.11669,-0.5446 0.0778,-0.2917 0.17503,-0.6029 -0.33062,0.6029 -0.70013,1.1669 -0.35007,0.564 -0.71958,0.9919 -0.62234,0.7585 -1.32247,1.2641 -0.68069,0.5057 -1.36137,0.5057 -0.54455,0 -0.93351,-0.389 -0.36951,-0.4084 -0.36951,-1.4003 0,-1.0113 0.35006,-2.0809 0.35007,-1.0697 0.97241,-1.9837 0.64179,-0.9335 1.4975,-1.4975 0.87517,-0.564 1.90592,-0.564 0.33061,0 0.71958,0.097 0.38896,0.097 0.71957,0.3695 0.33062,0.2529 0.44731,0.7196 0.0194,-0.039 0.0389,-0.058 0.0389,-0.019 0.0583,-0.039 0.27228,-0.4279 0.62234,-0.7196 0.35007,-0.2917 0.77792,-0.2917 0.21393,0 0.6029,0.019 0.38896,0.02 0.56399,0 -0.0972,0.078 -0.27227,0.3112 -0.15559,0.2334 -0.29172,0.4862 -0.13614,0.2334 -0.21393,0.3695 -0.5251,1.0113 -0.95296,2.0032 -0.42786,0.9918 -0.66124,1.9059 -0.0583,0.1945 -0.0778,0.3695 -0.0195,0.1556 -0.0195,0.3112 0,0.5056 0.33062,0.5056 0.31117,0 0.77793,-0.389 0.68068,-0.5445 1.18633,-1.3613 0.5251,-0.8168 0.91406,-1.5753 0.0778,-0.1362 0.13614,-0.1362 0.11669,0 0.11669,0.3307 0,0.1556 -0.0584,0.35 -0.0389,0.1945 -0.13614,0.3695 -0.27227,0.4668 -0.71957,1.1475 -0.42786,0.6807 -0.97241,1.3419 -0.54455,0.6418 -1.14744,1.0891 -0.58344,0.4473 -1.16688,0.4473 z m -3.87018,-1.692 q 0.0584,0.019 0.17504,0.019 0.36951,0 0.79737,-0.3112 0.42786,-0.3112 0.85572,-0.7974 0.42785,-0.5056 0.75847,-1.0113 0.85572,-1.3613 1.26413,-2.042 0.40841,-0.6807 0.46675,-0.778 -0.0972,-0.3306 -0.35006,-0.4862 -0.23338,-0.1555 -0.564,-0.1555 -0.42786,0 -0.91406,0.2333 -0.46675,0.2334 -0.79737,0.564 -0.50565,0.5057 -0.97241,1.3031 -0.4473,0.7973 -0.73902,1.5753 -0.27228,0.7779 -0.27228,1.303 0,0.4862 0.29172,0.5834 z"
           id="path7885" />
        <path
           d="m 355.45911,1283.5196 q -0.71958,0 -0.97241,-0.3501 -0.23337,-0.35 -0.23337,-0.8946 0,-0.3306 0.0583,-0.6612 0.0584,-0.3501 0.11669,-0.7196 0.15558,-0.8363 0.5251,-1.8865 0.38896,-1.0696 0.87516,-2.2948 h -5.50381 q -0.23338,0.5251 -0.56399,1.3613 -0.31117,0.8169 -0.62234,1.7504 -0.31117,0.9335 -0.5251,1.7697 -0.21393,0.8169 -0.21393,1.342 0,0.2917 0.0778,0.4278 h -2.5088 q 0.23337,-0.9724 0.62234,-2.1587 0.40841,-1.2058 0.91406,-2.5088 0.52509,-1.3031 1.06964,-2.5866 0.54455,-1.2836 1.0502,-2.4505 0.50565,-1.1863 1.16688,-2.3921 0.13614,-0.2334 0.23338,-0.4279 0.11669,-0.1944 0.25283,-0.3306 -0.75848,0.019 -1.63364,0.1945 -0.85572,0.1556 -1.65309,0.4473 -0.77793,0.2917 -1.34192,0.6807 -0.54455,0.389 -0.70013,0.8557 -0.0195,0.058 -0.0778,0.058 -0.17504,0 -0.17504,-0.2723 0,-0.058 0.0389,-0.1751 0.17503,-0.5056 0.42786,-0.8946 0.27227,-0.3889 0.54454,-0.6612 0.64179,-0.6612 1.43916,-0.7974 0.79738,-0.1556 1.69199,-0.1556 h 4.39527 q -0.42786,0.3307 -0.91406,1.0308 -0.4862,0.7001 -0.97241,1.5947 -0.4862,0.8752 -0.91406,1.7698 -0.40841,0.8752 -0.71958,1.5753 h 5.50381 q 0.42786,-1.0113 0.85572,-1.9254 0.42786,-0.9335 0.75848,-1.653 0.35006,-0.7196 0.54454,-1.0697 0.21393,-0.4278 0.40841,-0.7196 0.21393,-0.2917 0.54455,-0.4473 0.33062,-0.1556 0.93351,-0.1556 h 1.24468 q -0.35007,0.2723 -0.79737,0.9335 -0.42786,0.6418 -0.87517,1.4392 -0.42786,0.7974 -0.75847,1.517 -0.48621,1.0307 -1.03075,2.3337 -0.5251,1.3031 -0.95296,2.6061 -0.40841,1.2836 -0.58344,2.3143 -0.0584,0.2917 -0.0584,0.5834 0,0.4279 0.15559,0.7974 0.15558,0.3501 0.56399,0.3501 0.31117,0 0.75848,-0.2528 h 0.0195 q 0.0389,0 0.0583,0.078 0.0195,0.058 -0.0194,0.097 -0.23338,0.2528 -0.66123,0.4667 -0.42786,0.214 -0.93351,0.3307 -0.48621,0.1361 -0.93351,0.1361 z"
           id="path7887" />
        <path
           d="m 359.67932,1283.4807 q -0.50565,0 -0.83627,-0.4668 -0.31117,-0.4862 -0.23338,-1.4975 0.0389,-0.4278 0.19448,-1.089 0.15559,-0.6613 0.40841,-1.4198 0.27228,-0.7779 0.60289,-1.4975 0.33062,-0.739 0.71958,-1.303 0.21393,-0.2917 0.42786,-0.3501 0.23338,-0.078 0.83627,-0.078 h 0.93351 q -0.33062,0.4667 -0.70013,1.1668 -0.36952,0.7002 -0.68069,1.4003 -0.31117,0.6807 -0.4862,1.1474 -0.0389,0.1362 -0.15558,0.4862 -0.11669,0.3307 -0.21393,0.7391 -0.0972,0.4084 -0.0972,0.7584 0,0.3112 0.11669,0.5251 0.11668,0.214 0.42785,0.214 0.36952,-0.019 0.79738,-0.4668 0.42785,-0.4473 0.85571,-1.1474 0.42786,-0.7001 0.83627,-1.4586 0.42786,-0.7779 0.75848,-1.4392 0.35006,-0.6807 0.58344,-1.0502 0.29172,-0.4473 0.62234,-0.7779 0.33062,-0.3501 0.75847,-0.3501 0.15559,0 0.40841,0.02 0.27228,0 0.5251,0 0.27228,0 0.36952,-0.02 -0.11669,0.078 -0.27228,0.3112 -0.15558,0.2334 -0.31117,0.4862 -0.13613,0.2334 -0.21393,0.389 -0.50565,1.0113 -0.99185,2.042 -0.46675,1.0113 -0.70013,1.9254 -0.0972,0.35 -0.0972,0.6029 0,0.5834 0.38896,0.5834 0.27227,0 0.77793,-0.389 0.38896,-0.3111 0.75847,-0.7973 0.40841,-0.5057 0.75848,-1.0891 0.35006,-0.5835 0.60289,-1.0697 0.0778,-0.1361 0.13613,-0.1361 0.11669,0 0.11669,0.3112 0,0.1556 -0.0583,0.3695 -0.0389,0.1945 -0.15559,0.3889 -0.27227,0.4668 -0.64178,1.0308 -0.36952,0.5445 -0.75848,1.0891 -0.27227,0.3501 -0.71958,0.7974 -0.4473,0.4473 -0.95296,0.7779 -0.4862,0.3306 -0.95295,0.3306 -0.27228,0 -0.50565,-0.1167 -0.23338,-0.097 -0.38896,-0.4084 -0.19449,-0.4084 -0.19449,-1.1085 0,-0.214 0.0194,-0.4473 0.0195,-0.2529 0.0584,-0.5057 -0.29173,0.4084 -0.62234,0.7585 -0.31117,0.35 -0.64179,0.7001 -0.73903,0.739 -1.26413,0.9335 -0.50565,0.1945 -0.95295,0.1945 z"
           id="path7889" />
        <path
           d="m 367.78916,1287.9343 q -0.64178,0 -1.18633,-0.2723 -0.54455,-0.2528 -0.54455,-0.9529 0,-0.389 0.23338,-0.7974 0.23338,-0.3889 0.66123,-0.5056 0.0389,-0.019 0.0972,-0.019 0.0583,0 0.0972,0 0.52509,0 0.70013,0.4084 -0.0389,0.019 -0.11669,0.1167 -0.0778,0.1167 -0.11669,0.175 -0.17503,0.3501 -0.17503,0.6224 0,0.3112 0.19448,0.4862 0.21393,0.175 0.54454,0.175 0.27228,0 0.58345,-0.1361 0.33062,-0.1167 0.68068,-0.389 0.62234,-0.5056 1.0113,-1.2252 0.40841,-0.7001 0.70013,-1.3808 0.50565,-1.2058 0.95296,-2.5477 0.46676,-1.3419 0.91406,-2.5866 -0.36951,0.6807 -0.79737,1.3613 -0.40841,0.6807 -0.83627,1.1864 -0.62234,0.7585 -1.32247,1.2641 -0.68068,0.5057 -1.36137,0.5057 -0.54454,0 -0.93351,-0.389 -0.38896,-0.4084 -0.38896,-1.4003 0,-1.0113 0.35007,-2.0809 0.35006,-1.0697 0.9724,-1.9837 0.64179,-0.9335 1.49751,-1.4975 0.87516,-0.564 1.90591,-0.564 0.33062,0 0.71958,0.097 0.38896,0.097 0.70013,0.3501 0.33062,0.2528 0.44731,0.7196 0.27227,-0.5835 0.66123,-0.8363 0.38897,-0.2528 1.34192,-0.2528 h 0.77793 q -0.36952,0.2334 -0.73903,0.8751 -0.36952,0.6224 -0.70013,1.4781 -0.25283,0.6223 -0.58345,1.4586 -0.31117,0.8363 -0.58344,1.5947 -0.25282,0.7002 -0.58344,1.5559 -0.31117,0.8557 -0.71958,1.692 -0.38896,0.8362 -0.89461,1.478 -0.77793,0.9919 -1.90592,1.5948 -1.10854,0.6223 -2.25598,0.6223 z m 1.76978,-6.1456 q 0.0583,0.019 0.17503,0.019 0.36952,0 0.79737,-0.3112 0.42786,-0.3112 0.85572,-0.7974 0.42786,-0.5056 0.75848,-1.0113 0.81682,-1.2641 1.22523,-1.9448 0.42786,-0.6807 0.50565,-0.8557 0.0195,0 0.0195,-0.039 -0.0972,-0.3306 -0.35007,-0.4668 -0.23338,-0.1555 -0.54455,-0.1555 -0.42785,0 -0.91406,0.2333 -0.4862,0.2334 -0.81682,0.564 -0.50565,0.5057 -0.9724,1.3031 -0.44731,0.7973 -0.73903,1.5753 -0.29172,0.7779 -0.29172,1.303 0,0.4862 0.29172,0.5834 z"
           id="path7891" />
        <path
           d="m 377.92158,1283.5196 q -0.89462,0 -1.55585,-0.564 -0.64179,-0.564 -0.64179,-1.8087 0,-0.914 0.33062,-1.9059 0.33062,-0.9918 0.93351,-1.8476 0.62234,-0.8557 1.4975,-1.4002 0.87517,-0.5446 1.96426,-0.5446 0.89461,0 1.38082,0.3501 0.50565,0.3306 0.71957,0.8946 0.21393,0.564 0.21393,1.2058 0,0.4862 -0.11668,0.9919 -0.0972,0.4862 -0.29173,0.9724 0.33062,0.3889 0.83627,0.3889 0.54455,0 1.0113,-0.4084 0.27228,-0.2334 0.48621,-0.5834 0.23337,-0.3695 0.40841,-0.6807 0.0583,-0.1167 0.13613,-0.1167 0.0972,0 0.0972,0.2723 0,0.175 -0.0583,0.4084 -0.0389,0.2334 -0.19448,0.4667 -0.29172,0.5057 -0.60289,0.778 -0.31117,0.2528 -0.70013,0.4084 -0.29173,0.1167 -0.62234,0.1167 -0.6029,0 -1.0891,-0.3696 -0.15558,0.3307 -0.38896,0.6807 -0.56399,0.953 -1.45861,1.6337 -0.89461,0.6612 -2.29487,0.6612 z m 0.73903,-0.739 q 0.4473,0 0.85571,-0.2918 0.42786,-0.3111 0.77793,-0.7584 0.35006,-0.4473 0.60289,-0.9335 0.27227,-0.4862 0.4473,-0.8558 -0.66123,-0.5639 -0.66123,-1.4197 0,-0.564 0.31117,-0.8751 0.31117,-0.3112 0.85571,-0.2723 -0.0194,-0.4473 -0.23337,-0.739 -0.21393,-0.2918 -0.70014,-0.2918 -0.4473,0 -0.85571,0.2723 -0.38896,0.2723 -0.73903,0.7002 -0.33062,0.4084 -0.60289,0.8557 -0.25283,0.4278 -0.42786,0.7779 -0.25282,0.5056 -0.46675,1.2252 -0.21393,0.7196 -0.21393,1.3419 0,0.5446 0.21393,0.9141 0.23337,0.3501 0.83627,0.3501 z"
           id="path7893" />
        <path
           d="m 400.22853,1283.5196 q -0.71958,0 -0.97241,-0.3501 -0.23338,-0.35 -0.23338,-0.8946 0,-0.3306 0.0584,-0.6612 0.0583,-0.3501 0.11669,-0.7196 0.15558,-0.8363 0.52509,-1.8865 0.38897,-1.0696 0.87517,-2.2948 h -5.50381 q -0.23338,0.5251 -0.564,1.3613 -0.31117,0.8169 -0.62234,1.7504 -0.31117,0.9335 -0.5251,1.7697 -0.21392,0.8169 -0.21392,1.342 0,0.2917 0.0778,0.4278 h -2.50881 q 0.23338,-0.9724 0.62234,-2.1587 0.40841,-1.2058 0.91406,-2.5088 0.5251,-1.3031 1.06965,-2.5866 0.54455,-1.2836 1.0502,-2.4505 0.50565,-1.1863 1.16688,-2.3921 0.13614,-0.2334 0.23338,-0.4279 0.11669,-0.1944 0.25282,-0.3306 -0.75847,0.019 -1.63364,0.1945 -0.85571,0.1556 -1.65308,0.4473 -0.77793,0.2917 -1.34192,0.6807 -0.54455,0.389 -0.70014,0.8557 -0.0194,0.058 -0.0778,0.058 -0.17503,0 -0.17503,-0.2723 0,-0.058 0.0389,-0.1751 0.17503,-0.5056 0.42785,-0.8946 0.27228,-0.3889 0.54455,-0.6612 0.64179,-0.6612 1.43916,-0.7974 0.79737,-0.1556 1.69198,-0.1556 h 4.39528 q -0.42786,0.3307 -0.91407,1.0308 -0.4862,0.7001 -0.9724,1.5947 -0.4862,0.8752 -0.91406,1.7698 -0.40841,0.8752 -0.71958,1.5753 h 5.50381 q 0.42786,-1.0113 0.85572,-1.9254 0.42786,-0.9335 0.75847,-1.653 0.35007,-0.7196 0.54455,-1.0697 0.21393,-0.4278 0.40841,-0.7196 0.21393,-0.2917 0.54455,-0.4473 0.33061,-0.1556 0.93351,-0.1556 h 1.24467 q -0.35006,0.2723 -0.79737,0.9335 -0.42786,0.6418 -0.87516,1.4392 -0.42786,0.7974 -0.75848,1.517 -0.4862,1.0307 -1.03075,2.3337 -0.5251,1.3031 -0.95295,2.6061 -0.40841,1.2836 -0.58345,2.3143 -0.0583,0.2917 -0.0583,0.5834 0,0.4279 0.15558,0.7974 0.15559,0.3501 0.564,0.3501 0.31117,0 0.75847,-0.2528 h 0.0195 q 0.0389,0 0.0584,0.078 0.0194,0.058 -0.0195,0.097 -0.23338,0.2528 -0.66124,0.4667 -0.42786,0.214 -0.93351,0.3307 -0.4862,0.1361 -0.9335,0.1361 z"
           id="path7895" />
        <path
           d="m 407.8327,1283.0917 q -0.89461,0.4668 -1.88646,0.4668 -0.83627,0 -1.55585,-0.4084 -0.71958,-0.4084 -0.97241,-1.303 -0.11668,-0.4084 -0.11668,-0.8558 0,-0.739 0.25282,-1.5169 0.27227,-0.7974 0.70013,-1.4586 0.66124,-1.0308 1.67254,-1.7114 1.0113,-0.6807 2.23653,-0.6807 0.91406,0 1.41971,0.4667 0.50565,0.4668 0.50565,1.0891 0,0.739 -0.50565,1.303 -0.4862,0.5446 -1.28357,0.8363 -0.38896,0.1361 -0.83627,0.2139 -0.42786,0.058 -0.81682,0.058 -0.79737,0 -1.22523,-0.2139 -0.36952,0.9529 -0.36952,1.7503 0,0.7196 0.33062,1.1863 0.33062,0.4473 1.0502,0.4473 0.60289,0 1.18633,-0.3306 0.60289,-0.3306 1.10855,-0.8168 0.52509,-0.4862 0.87516,-0.9335 0.27227,-0.3306 0.46675,-0.6224 0.19449,-0.2917 0.40841,-0.6612 0.21393,-0.389 0.50565,-0.953 0.0778,-0.1361 0.13614,-0.1361 0.11669,0 0.11669,0.3112 0,0.175 -0.0583,0.3889 -0.0389,0.1945 -0.15559,0.4084 -0.27227,0.4863 -0.66123,1.0697 -0.36952,0.564 -0.75848,1.0891 -0.35007,0.4667 -0.79737,0.8557 -0.44731,0.389 -0.97241,0.6612 z m -1.76977,-4.1424 q 0.0972,0.058 0.21392,0.078 0.11669,0.019 0.23338,0.019 0.38896,0 0.77793,-0.175 0.38896,-0.1945 0.66123,-0.389 0.44731,-0.3111 0.75848,-0.739 0.31117,-0.4278 0.35006,-0.9724 0.0195,-0.2334 -0.11669,-0.389 -0.11668,-0.175 -0.42785,-0.175 -0.15559,0 -0.38897,0.058 -0.31117,0.078 -0.62233,0.2917 -0.31117,0.2139 -0.6029,0.5056 -0.0972,0.097 -0.35006,0.389 -0.23338,0.2723 -0.44731,0.6223 -0.21393,0.3306 -0.21393,0.5835 0,0.2139 0.17504,0.2917 z"
           id="path7897" />
        <path
           d="m 416.19537,1283.4807 q -0.60289,0 -0.83627,-0.4668 -0.21393,-0.4667 -0.21393,-1.1474 0,-0.6223 0.11669,-1.2252 0.0583,-0.2723 0.11669,-0.5446 0.0778,-0.2917 0.17503,-0.6029 -0.33062,0.6029 -0.70013,1.1669 -0.35007,0.564 -0.71958,0.9919 -0.62234,0.7585 -1.32247,1.2641 -0.68068,0.5057 -1.36137,0.5057 -0.54454,0 -0.93351,-0.389 -0.36951,-0.4084 -0.36951,-1.4003 0,-1.0113 0.35007,-2.0809 0.35006,-1.0697 0.9724,-1.9837 0.64179,-0.9335 1.4975,-1.4975 0.87517,-0.564 1.90592,-0.564 0.33062,0 0.71958,0.097 0.38896,0.097 0.71958,0.3695 0.33061,0.2529 0.4473,0.7196 0.0195,-0.039 0.0389,-0.058 0.0389,-0.019 0.0583,-0.039 0.27228,-0.4279 0.62234,-0.7196 0.35007,-0.2917 0.77793,-0.2917 0.21393,0 0.60289,0.019 0.38896,0.02 0.56399,0 -0.0972,0.078 -0.27227,0.3112 -0.15559,0.2334 -0.29172,0.4862 -0.13614,0.2334 -0.21393,0.3695 -0.5251,1.0113 -0.95296,2.0032 -0.42786,0.9918 -0.66123,1.9059 -0.0583,0.1945 -0.0778,0.3695 -0.0194,0.1556 -0.0194,0.3112 0,0.5056 0.33061,0.5056 0.31117,0 0.77793,-0.389 0.68068,-0.5445 1.18633,-1.3613 0.5251,-0.8168 0.91406,-1.5753 0.0778,-0.1362 0.13614,-0.1362 0.11669,0 0.11669,0.3307 0,0.1556 -0.0584,0.35 -0.0389,0.1945 -0.13613,0.3695 -0.27228,0.4668 -0.71958,1.1475 -0.42786,0.6807 -0.97241,1.3419 -0.54454,0.6418 -1.14744,1.0891 -0.58344,0.4473 -1.16688,0.4473 z m -3.87017,-1.692 q 0.0583,0.019 0.17503,0.019 0.36951,0 0.79737,-0.3112 0.42786,-0.3112 0.85572,-0.7974 0.42786,-0.5056 0.75847,-1.0113 0.85572,-1.3613 1.26413,-2.042 0.40841,-0.6807 0.46675,-0.778 -0.0972,-0.3306 -0.35006,-0.4862 -0.23338,-0.1555 -0.564,-0.1555 -0.42785,0 -0.91406,0.2333 -0.46675,0.2334 -0.79737,0.564 -0.50565,0.5057 -0.9724,1.3031 -0.44731,0.7973 -0.73903,1.5753 -0.27227,0.7779 -0.27227,1.303 0,0.4862 0.29172,0.5834 z"
           id="path7899" />
        <path
           d="m 422.67158,1283.5002 q -0.62234,0 -0.89461,-0.5251 -0.21393,-0.4668 -0.21393,-1.1086 0,-0.7196 0.21393,-1.5947 0.21393,-0.8752 0.58344,-1.7893 0.13614,-0.3306 0.35006,-0.8362 0.23338,-0.5057 0.54455,-0.9919 -0.27227,0.2334 -0.64179,0.389 -0.36951,0.1361 -0.71958,0.1361 -0.27227,0 -0.4473,-0.078 -0.15559,0.3112 -0.50565,1.0113 -0.35007,0.7002 -0.93351,1.6531 -0.0583,0.097 -0.11669,0 -0.0389,-0.1167 -0.0389,-0.3112 0,-0.1555 0.0389,-0.3306 0.0389,-0.175 0.11669,-0.3306 0.19448,-0.3695 0.38896,-0.7585 0.19448,-0.4084 0.35007,-0.7195 0.15558,-0.3112 0.17503,-0.389 -0.35007,-0.175 -0.5251,-0.4862 -0.17503,-0.3306 -0.17503,-0.6418 0,-0.3112 0.13613,-0.564 0.15559,-0.2528 0.44731,-0.389 0.17503,-0.058 0.33062,-0.058 0.42786,0 0.70013,0.2723 -0.0195,0.078 -0.0389,0.175 0,0.078 0,0.175 0,0.6029 0.48621,0.8947 0.4862,0.2917 1.05019,0.2139 0.27228,-0.389 0.62234,-0.6807 0.35007,-0.2917 0.75848,-0.2917 0.21393,0 0.60289,0.019 0.40841,0.02 0.58344,0 -0.11669,0.078 -0.27227,0.3112 -0.15559,0.2334 -0.29172,0.4862 -0.13614,0.2528 -0.21393,0.389 -0.5251,1.0113 -0.97241,2.0226 -0.4473,0.9918 -0.68068,1.9059 -0.0389,0.175 -0.0778,0.3306 -0.0195,0.1361 -0.0195,0.2917 0,0.5835 0.38896,0.5835 0.27228,0 0.77793,-0.389 0.4473,-0.3695 0.79737,-0.8168 0.38896,-0.5057 0.73903,-1.0891 0.35006,-0.5835 0.60289,-1.0697 0.0972,-0.1555 0.13613,-0.1555 0.11669,0 0.11669,0.35 0,0.1362 -0.0389,0.3306 -0.0389,0.1945 -0.13614,0.3695 -0.29172,0.4863 -0.66124,1.0697 -0.36951,0.564 -0.75847,1.1085 -0.25283,0.3501 -0.71958,0.7974 -0.44731,0.4473 -0.97241,0.7779 -0.50565,0.3307 -0.9724,0.3307 z"
           id="path7901" />
        <path
           d="m 427.55304,1283.4807 q -0.56399,0 -0.85571,-0.4473 -0.13614,-0.2139 -0.19448,-0.5057 -0.0584,-0.2917 -0.0584,-0.6028 0,-0.3112 0.0389,-0.6224 0.0389,-0.3306 0.0972,-0.6418 0.0972,-0.5056 0.21393,-0.914 0.13614,-0.4279 0.27227,-0.8169 v -0.019 q -0.15558,0.2917 -0.38896,0.6418 -0.23338,0.3306 -0.33062,0.4862 -0.13613,0.2139 -0.21393,0.2139 -0.0778,0 -0.0778,-0.175 0,-0.389 0.23338,-0.8557 0.15558,-0.3112 0.42786,-0.7974 0.27227,-0.5057 0.56399,-1.0891 0.29172,-0.5834 0.50565,-1.128 h -1.30302 q -0.0972,0 -0.0389,-0.1556 0.0584,-0.1556 0.17504,-0.2917 0.11668,-0.1556 0.17503,-0.1556 h 1.47805 q 0.21393,-0.5056 0.48621,-1.0891 0.29172,-0.5834 0.64178,-1.0891 0.36952,-0.5251 0.79738,-0.8557 0.42785,-0.3306 0.91406,-0.3306 0.21393,0 0.5251,0 0.33061,0 0.40841,-0.019 -0.40841,0.2722 -0.95296,1.089 -0.54455,0.7974 -1.18634,2.2949 h 1.96426 q 0.0584,0 -0.0389,0.1556 -0.0972,0.1361 -0.25283,0.2917 -0.13614,0.1556 -0.27227,0.1556 h -1.67254 q -0.25282,0.6418 -0.56399,1.4003 -0.29173,0.7585 -0.54455,1.4975 -0.23338,0.7196 -0.35007,1.3225 -0.0778,0.3695 -0.0778,0.6806 0,0.7391 0.46676,0.7391 0.31117,0 0.73902,-0.3112 0.42786,-0.3112 0.85572,-0.8557 0.38896,-0.5057 0.73903,-1.0891 0.36951,-0.5835 0.62234,-1.0697 0.0778,-0.1361 0.13613,-0.1361 0.11669,0 0.11669,0.3112 0,0.1556 -0.0583,0.3695 -0.0389,0.1945 -0.15559,0.3889 -0.27227,0.4668 -0.64178,1.0308 -0.36952,0.5445 -0.75848,1.0891 -0.27227,0.3501 -0.71958,0.7974 -0.42786,0.4473 -0.93351,0.7779 -0.4862,0.3306 -0.95296,0.3306 z"
           id="path7903" />
      </g>
    </g>
  </g>
</svg>
