<?xml version="1.0" encoding="UTF-8" standalone="no"?> <!-- Created with Vectornator for iOS (http://vectornator.io/) --><!DOCTYPE svg PUBLIC "-//W3C//DTD SVG 1.1//EN" "http://www.w3.org/Graphics/SVG/1.1/DTD/svg11.dtd">
<svg height="100%" style="fill-rule:evenodd;clip-rule:evenodd;stroke-linecap:round;stroke-linejoin:round;" xmlns:xlink="http://www.w3.org/1999/xlink" xmlns="http://www.w3.org/2000/svg" xml:space="preserve" width="100%" xmlns:vectornator="http://vectornator.io" version="1.1" viewBox="0 0 900 690">
<metadata>
<vectornator:setting key="RulersVisible" value="1"/>
<vectornator:setting key="Units" value="Points"/>
<vectornator:setting key="DynamicGuides" value="0"/>
<vectornator:setting key="GuidesVisible" value="1"/>
<vectornator:setting key="CMYKEnabledKey" value="0"/>
<vectornator:setting key="SnapToGuides" value="0"/>
<vectornator:setting key="GridSpacing" value="36"/>
</metadata>
<defs>
<linearGradient y1="256.4" id="LinearGradient" x1="533.098" y2="678.4" x2="571.076" gradientUnits="userSpaceOnUse" gradientTransform="matrix(0.682172 0 0 0.739497 87.4507 -45.6219)">
<stop stop-color="#cc231b" offset="0.015"/>
<stop stop-opacity="0.72" stop-color="#ffbab9" offset="0.9975"/>
</linearGradient>
<linearGradient y1="256.4" id="LinearGradient_2" x1="533.098" y2="678.4" x2="571.076" gradientUnits="userSpaceOnUse" gradientTransform="matrix(0.645822 0 0 0.700092 39.0657 54.1373)">
<stop stop-color="#cc231b" offset="0.015"/>
<stop stop-opacity="0.72" stop-color="#ffbab9" offset="0.9975"/>
</linearGradient>
<linearGradient y1="256.4" id="LinearGradient_3" x1="533.098" y2="678.4" x2="571.076" gradientUnits="userSpaceOnUse" gradientTransform="matrix(0.70295 0 0 0.762021 76.544 -48.2804)">
<stop stop-color="#cc231b" offset="0.015"/>
<stop stop-opacity="0.72" stop-color="#ffbab9" offset="0.9975"/>
</linearGradient>
</defs>
<g id="text" vectornator:layerName="text" visibility="hidden">
<g opacity="1">
<path stroke="#ffffff" stroke-width="0.1" d="M131.376+524.059C131.376+531.603+130.064+538.026+127.44+543.329C124.816+548.632+121.236+552.923+116.698+556.203C112.161+559.483+106.858+561.888+100.79+563.419C94.7223+564.95+88.1896+565.715+81.1923+565.715L81.1923+591.791L46.2603+591.791L46.2603+482.403L81.1923+482.403C88.1896+482.403+94.7223+483.168+100.79+484.699C106.858+486.23+112.161+488.635+116.698+491.915C121.236+495.195+124.816+499.486+127.44+504.789C130.064+510.092+131.376+516.515+131.376+524.059ZM81.1923+536.195L82.6683+536.195C87.2603+536.195+90.5676+535.129+92.5903+532.997C94.613+530.865+95.6243+527.886+95.6243+524.059C95.6243+520.232+94.613+517.253+92.5903+515.121C90.5676+512.989+87.2603+511.923+82.6683+511.923L81.1923+511.923L81.1923+536.195Z" fill="#49525d" stroke-linecap="butt" opacity="1" stroke-linejoin="miter"/>
<path stroke="#ffffff" stroke-width="0.1" d="M149.361+537.179C149.361+529.307+150.865+521.872+153.871+514.875C156.878+507.878+160.978+501.782+166.171+496.589C171.365+491.396+177.46+487.296+184.457+484.289C191.455+481.282+198.889+479.779+206.761+479.779C214.633+479.779+222.068+481.282+229.065+484.289C236.063+487.296+242.158+491.396+247.351+496.589C252.545+501.782+256.645+507.878+259.651+514.875C262.658+521.872+264.161+529.307+264.161+537.179C264.161+545.051+262.658+552.486+259.651+559.483C256.645+566.48+252.545+572.576+247.351+577.769C242.158+582.962+236.063+587.062+229.065+590.069C222.068+593.076+214.633+594.579+206.761+594.579C198.889+594.579+191.455+593.076+184.457+590.069C177.46+587.062+171.365+582.962+166.171+577.769C160.978+572.576+156.878+566.48+153.871+559.483C150.865+552.486+149.361+545.051+149.361+537.179ZM183.801+537.179C183.801+540.35+184.403+543.329+185.605+546.117C186.808+548.905+188.448+551.338+190.525+553.415C192.603+555.492+195.035+557.132+197.823+558.335C200.611+559.538+203.591+560.139+206.761+560.139C209.932+560.139+212.911+559.538+215.699+558.335C218.487+557.132+220.92+555.492+222.997+553.415C225.075+551.338+226.715+548.905+227.917+546.117C229.12+543.329+229.721+540.35+229.721+537.179C229.721+534.008+229.12+531.029+227.917+528.241C226.715+525.453+225.075+523.02+222.997+520.943C220.92+518.866+218.487+517.226+215.699+516.023C212.911+514.82+209.932+514.219+206.761+514.219C203.591+514.219+200.611+514.82+197.823+516.023C195.035+517.226+192.603+518.866+190.525+520.943C188.448+523.02+186.808+525.453+185.605+528.241C184.403+531.029+183.801+534.008+183.801+537.179Z" fill="#49525d" stroke-linecap="butt" opacity="1" stroke-linejoin="miter"/>
<path stroke="#ffffff" stroke-width="0.1" d="M370.542+524.059C370.542+531.603+369.23+538.026+366.606+543.329C363.982+548.632+360.402+552.923+355.864+556.203C351.327+559.483+346.024+561.888+339.956+563.419C333.888+564.95+327.356+565.715+320.358+565.715L320.358+591.791L285.426+591.791L285.426+482.403L320.358+482.403C327.356+482.403+333.888+483.168+339.956+484.699C346.024+486.23+351.327+488.635+355.864+491.915C360.402+495.195+363.982+499.486+366.606+504.789C369.23+510.092+370.542+516.515+370.542+524.059ZM320.358+536.195L321.834+536.195C326.426+536.195+329.734+535.129+331.756+532.997C333.779+530.865+334.79+527.886+334.79+524.059C334.79+520.232+333.779+517.253+331.756+515.121C329.734+512.989+326.426+511.923+321.834+511.923L320.358+511.923L320.358+536.195Z" fill="#49525d" stroke-linecap="butt" opacity="1" stroke-linejoin="miter"/>
<path stroke="#ffffff" stroke-width="0.1" d="M476.103+524.059C476.103+531.603+474.791+538.026+472.167+543.329C469.543+548.632+465.963+552.923+461.425+556.203C456.888+559.483+451.585+561.888+445.517+563.419C439.449+564.95+432.917+565.715+425.919+565.715L425.919+591.791L390.987+591.791L390.987+482.403L425.919+482.403C432.917+482.403+439.449+483.168+445.517+484.699C451.585+486.23+456.888+488.635+461.425+491.915C465.963+495.195+469.543+499.486+472.167+504.789C474.791+510.092+476.103+516.515+476.103+524.059ZM425.919+536.195L427.395+536.195C431.987+536.195+435.295+535.129+437.317+532.997C439.34+530.865+440.351+527.886+440.351+524.059C440.351+520.232+439.34+517.253+437.317+515.121C435.295+512.989+431.987+511.923+427.395+511.923L425.919+511.923L425.919+536.195Z" fill="#49525d" stroke-linecap="butt" opacity="1" stroke-linejoin="miter"/>
<path stroke="#ffffff" stroke-width="0.1" d="M521.477+544.723L487.529+482.403L526.397+482.403L539.025+505.527L551.489+482.403L590.357+482.403L556.409+544.723L556.409+591.791L521.477+591.791L521.477+544.723Z" fill="#49525d" stroke-linecap="butt" opacity="1" stroke-linejoin="miter"/>
<path stroke="#ffffff" stroke-width="0.1" d="M674.762+519.631C672.794+517.882+670.334+516.542+667.382+515.613C664.43+514.684+661.532+514.219+658.69+514.219C655.519+514.219+652.622+514.793+649.998+515.941C647.374+517.089+645.105+518.674+643.192+520.697C641.278+522.72+639.775+525.152+638.682+527.995C637.588+530.838+637.042+533.899+637.042+537.179C637.042+540.459+637.643+543.52+638.846+546.363C640.048+549.206+641.688+551.638+643.766+553.661C645.843+555.684+648.276+557.269+651.064+558.417C653.852+559.565+656.831+560.139+660.002+560.139C663.719+560.139+667.108+559.346+670.17+557.761C673.231+556.176+675.855+554.016+678.042+551.283L668.202+551.283L668.202+528.323L710.35+528.323L710.35+564.731C707.835+569.214+704.828+573.286+701.33+576.949C697.831+580.612+693.922+583.755+689.604+586.379C685.285+589.003+680.611+591.026+675.582+592.447C670.552+593.868+665.359+594.579+660.002+594.579C652.13+594.579+644.695+593.103+637.698+590.151C630.7+587.199+624.605+583.154+619.412+578.015C614.218+572.876+610.118+566.808+607.112+559.811C604.105+552.814+602.602+545.27+602.602+537.179C602.602+529.307+604.023+521.872+606.866+514.875C609.708+507.878+613.617+501.782+618.592+496.589C623.566+491.396+629.47+487.296+636.304+484.289C643.137+481.282+650.49+479.779+658.362+479.779C664.484+479.779+669.787+480.38+674.27+481.583C678.752+482.786+682.524+484.152+685.586+485.683C689.194+487.432+692.2+489.346+694.606+491.423L674.762+519.631Z" fill="#49525d" stroke-linecap="butt" opacity="1" stroke-linejoin="miter"/>
<path stroke="#ffffff" stroke-width="0.1" d="M729.155+537.179C729.155+529.307+730.658+521.872+733.665+514.875C736.671+507.878+740.771+501.782+745.965+496.589C751.158+491.396+757.253+487.296+764.251+484.289C771.248+481.282+778.683+479.779+786.555+479.779C794.427+479.779+801.861+481.282+808.859+484.289C815.856+487.296+821.951+491.396+827.145+496.589C832.338+501.782+836.438+507.878+839.445+514.875C842.451+521.872+843.955+529.307+843.955+537.179C843.955+545.051+842.451+552.486+839.445+559.483C836.438+566.48+832.338+572.576+827.145+577.769C821.951+582.962+815.856+587.062+808.859+590.069C801.861+593.076+794.427+594.579+786.555+594.579C778.683+594.579+771.248+593.076+764.251+590.069C757.253+587.062+751.158+582.962+745.965+577.769C740.771+572.576+736.671+566.48+733.665+559.483C730.658+552.486+729.155+545.051+729.155+537.179ZM763.595+537.179C763.595+540.35+764.196+543.329+765.399+546.117C766.601+548.905+768.241+551.338+770.319+553.415C772.396+555.492+774.829+557.132+777.617+558.335C780.405+559.538+783.384+560.139+786.555+560.139C789.725+560.139+792.705+559.538+795.493+558.335C798.281+557.132+800.713+555.492+802.791+553.415C804.868+551.338+806.508+548.905+807.711+546.117C808.913+543.329+809.515+540.35+809.515+537.179C809.515+534.008+808.913+531.029+807.711+528.241C806.508+525.453+804.868+523.02+802.791+520.943C800.713+518.866+798.281+517.226+795.493+516.023C792.705+514.82+789.725+514.219+786.555+514.219C783.384+514.219+780.405+514.82+777.617+516.023C774.829+517.226+772.396+518.866+770.319+520.943C768.241+523.02+766.601+525.453+765.399+528.241C764.196+531.029+763.595+534.008+763.595+537.179Z" fill="#49525d" stroke-linecap="butt" opacity="1" stroke-linejoin="miter"/>
</g>
<path d="M446.663+410.478C409.838+401.025+237.827+369.509+180.167+287.045C122.508+204.58+124.93+210.883+126.384+172.539C127.838+134.196+198.512+97.2455+207.453+98.2679C245.565+102.626+230.635+82.6143+237.437+82.904C244.239+83.1937+262.395+49.6319+262.395+49.6319C262.395+49.6319+346.954-16.5399+431.991+109.865C462.213+154.791+456.495+119.94+456.495+119.94C429.268+41.7969+453.93+1.83247+525.642+14.4385C597.353+27.0445+650.651+65.3881+652.59+82.1961C654.528+99.0042+649.45+131.763+647.692+138.244C640.362+165.273+647.427+174.265+656.467+171.489C673.111+166.376+685.538+158.358+706.375+167.812C727.209+177.267+744.166+196.176+731.568+211.933C718.97+227.691+654.044+274.439+649.197+285.994C644.353+297.549+563.436+372.136+521.765+391.046C480.096+409.952+483.486+419.934+446.663+410.478Z" fill-rule="evenodd" fill="url(#LinearGradient)" opacity="1"/>
<path d="M299.393+288.75C312.622+260.123+354.007+269.432+397.956+287.933C441.907+306.434+470.422+337.979+457.195+366.606C443.965+395.233+401.61+395.74+357.66+377.239C313.71+358.738+286.164+317.376+299.393+288.75Z" fill-rule="evenodd" fill="#ffffff" opacity="1"/>
<path d="M528.581+364.046C514.721+348.63+528+311.928+558.239+282.069C588.481+252.208+624.229+240.499+638.089+255.916C651.948+271.333+638.67+308.035+608.43+337.894C578.189+367.755+542.441+379.462+528.581+364.046Z" fill-rule="evenodd" fill="#ffffff" opacity="1"/>
<path stroke="#211611" fill-rule="evenodd" stroke-width="0.1" d="M210.092+97.6126C157.279+126.822+141.607+149.352+149.421+177.686C158.747+211.501+185.024+245.419+188.805+251.256C198.124+265.639+254.285+311.585+268.651+321.703C289.476+336.37+308.405+353.058+330.844+364.984C351.877+376.163+376.714+381.663+398.77+390.798C417.075+398.378+434.569+403.045+453.037+412.242L453.487+412.12C389.943+400.3+263.569+370.233+204.131+315.294C144.693+260.354+124.669+199.162+122.603+172.646C120.219+142.054+176.949+100.534+209.823+97.3204" fill="#49525d" stroke-linecap="butt" opacity="1" stroke-linejoin="miter"/>
<path stroke="#211611" fill-rule="evenodd" stroke-width="0.1" d="M194.928+150.646C196.436+139.359+217.76+107.633+223.026+99.3652C230.84+87.0971+238.385+76.8737+255.361+77.458C262.978+77.7199+268.294+75.4132+279.111+99.4303C287.536+118.138+280.043+154.977+295.672+202.882C311.3+250.786+403.304+268.392+403.304+268.392C362.885+272.187+340.524+266.453+326.066+262.189C273.501+246.683+265.281+240.064+256.695+194.354C253.943+179.7+265.521+153.012+263.489+138.148C259.366+107.975+249.006+101.389+242.034+105.974C218.053+121.748+195.358+141.114+194.464+150.482" fill="#49525d" stroke-linecap="butt" opacity="1" stroke-linejoin="miter"/>
<path stroke="#211611" fill-rule="evenodd" stroke-width="0.1" d="M234.882+52.6296C256.148-12.0686+423.158+43.604+438.98+113.36L432.29+116.413C406.31+70.4606+370.322+47.4994+321.916+39.4853C247.816+27.2172+269.725+88.3384+234.968+52.8452" fill="#49525d" stroke-linecap="butt" opacity="1" stroke-linejoin="miter"/>
<path stroke="#211611" fill-rule="evenodd" stroke-width="0.1" d="M648.369+140.589C646.488+116.818+649.826+97.1513+639.306+73.8014C626.389+45.126+579.476+32.059+552.055+29.6118C502.853+25.22+488.408+24.5726+467.31+38.1394C455.896+45.4791+453.557+54.7288+458.371+68.7621C462.041+79.4625+467.389+92.5074+468.383+104.424C470.289+127.26+451.777+147.537+449.789+169.545C447.78+191.799+447.428+203.38+452.188+224.296C454.826+235.886+456.362+247.841+458.586+259.532L458.039+259.673C454.276+246.794+451.935+233.214+447.445+220.605C440.995+202.484+431.421+185.244+432.982+165.282C434.476+146.139+451.883+125.49+449.438+106.256C448.183+96.3906+441.841+87.9904+438.114+79.1649C430.599+61.378+433.7+36.7168+445.735+21.9086C461.502+2.5042+521.079-2.12623+579.778+12.7841C607.801+19.9022+642.385+36.4304+653.608+68.6107C661.749+91.9471+652.568+117.065+650.708+140.589" fill="#49525d" stroke-linecap="butt" opacity="1" stroke-linejoin="miter"/>
<path stroke="#211611" fill-rule="evenodd" stroke-width="0.1" d="M628.578+124.968C623.666+121.943+610.605+130.365+604.264+132.333C599.074+133.944+593.062+139.025+592.05+143.528C587.402+164.168+602.053+178.258+598.541+199.005C594.843+220.863+554.62+256.827+544.905+276.143L533.293+272.405C552.066+225.534+571.969+212.517+574.205+204.513C580.187+183.07+565.644+159.08+591.747+121.867C596.338+115.323+621.365+118.62+626.792+122.642" fill="#49525d" stroke-linecap="butt" opacity="1" stroke-linejoin="miter"/>
<path stroke="#211611" fill-rule="evenodd" stroke-width="0.1" d="M613.053+148.911C622.588+162.194+645.598+161.619+660.731+163.861C678.26+166.457+699.903+149.113+717.625+155.226C732.886+160.492+745.555+196.147+732.647+217.329C728.601+223.965+703.96+244.054+697.311+249.204C687.945+256.457+677.519+263.199+667.491+269.345L665.604+266.622C674.159+257.287+679.51+246.67+689.39+238.71C696.143+233.272+708.507+207.258+707.382+203.948C702.963+190.929+674.167+189.246+663.576+186.68C636.969+180.232+628.861+174.101+610.771+150.146" fill="#49525d" stroke-linecap="butt" opacity="1" stroke-linejoin="miter"/>
<path stroke="#211611" fill-rule="evenodd" stroke-width="0.1" d="M401.158+287.772C413.816+290.021+447.276+297.078+456.939+332.349C467.667+371.499+450.742+388.952+446.927+394.37C431.784+415.888+367.126+389.959+350.242+379.316C337.414+371.227+313.14+347.978+306.496+333.452C286.129+288.924+310.958+263.698+333.933+274.981C361.562+288.551+366.83+299.014+366.83+299.014C357.47+289.967+334.22+290.843+329.642+295.137C316.411+307.542+323.205+323.045+326.781+333.901C328.082+337.849+345.209+366.892+357.941+373.672C378.875+384.816+393.834+392.32+414.388+388.944C432.603+385.949+440.338+354.493+433.711+338.946C427.084+323.396+420.468+303.278+397.94+288.935" fill="#49525d" stroke-linecap="butt" opacity="1" stroke-linejoin="miter"/>
<path d="M530.237+319.775C531.357+317.179+543.265+298.793+545.088+295.484C553.937+279.424+569.704+257.146+579.22+249.849C594.555+238.089+602.113+232.267+621.6+231.888C632.177+231.682+647.923+256.309+650.534+271.161C656.157+303.142+610.847+337.805+591.576+355.111C581.077+364.54+551.87+384.451+537.597+381.62C522.511+378.627+520.379+360.118+522.298+346.774C525.366+325.443+536.395+307.231+551.265+293.562C557.393+287.928+564.174+283.066+571.319+279.076L573.129+281.474C564.651+290.955+556.55+300.939+548.93+311.248C538.951+324.75+530.989+339.521+529.911+357.014C529.625+361.648+538.788+368.548+544.868+367.519C573.203+362.713+606.94+332.891+626.228+309.701C636.041+297.903+641.783+287.328+643.58+273.072C644.019+269.592+635.518+265.65+633.675+264.923C622.732+260.607+608.495+259.535+597.231+263.262C575.566+270.436+555.911+286.893+540.677+304.433" fill-rule="evenodd" fill="#49525d" opacity="1"/>
<path stroke="#211611" fill-rule="evenodd" stroke-width="0.1" d="M593.325+276.143C603.625+276.143+610.156+284.788+608.931+303.183C607.553+323.9+579.288+358.629+563.763+342.94C542.526+321.474+572.274+257.409+593.239+276.62C593.239+276.62+587.401+281.115+578.283+292.183C573.244+298.3+577.227+309.785+586.389+309.954C605.778+310.306+607.316+285.376+578.191+291.867" fill="#49525d" stroke-linecap="butt" opacity="1" stroke-linejoin="miter"/>
<path stroke="#211611" fill-rule="evenodd" stroke-width="0.1" d="M403.304+366.947L407.581+365.397L421.502+360.353C429.78+407.193+321.792+347.479+341.902+322.07C376.344+278.553+435.731+323.698+421.998+360.708L389.449+370.84C390.729+369.898+424.022+361.088+392.576+336.958C383.609+330.078+375.147+324.823+373.981+340.876C372.382+362.901+381.712+367.562+389.7+370.84" fill="#49525d" stroke-linecap="butt" opacity="1" stroke-linejoin="miter"/>
<g opacity="1">
<path d="M166.416+647.632L168.092+648.901C167.652+649.849+167.229+650.678+166.823+651.389C166.416+652.1+165.926+652.964+165.35+653.979C164.775+654.995+164.334+655.757+164.03+656.264C161.491+660.699+159.104+662.917+156.87+662.917C155.922+662.917+155.109+662.544+154.432+661.8C153.755+661.055+153.416+660.039+153.416+658.753C153.416+656.925+154.068+654.419+155.372+651.237C156.675+648.055+158.689+644.136+161.415+639.481C164.14+634.826+167.567+629.553+171.698+623.663C175.828+617.772+180.483+611.56+185.663+605.026C182.683+604.586+179.146+604.366+175.049+604.366C170.344+604.366+165.105+604.891+159.332+605.94C153.56+606.99+148.533+608.2+144.25+609.571C139.968+610.942+137.827+611.949+137.827+612.593C137.827+612.829+137.911+612.99+138.081+613.075C138.25+613.16+138.529+613.227+138.918+613.278C139.308+613.329+139.807+613.388+140.416+613.456C144.377+613.997+146.358+614.607+146.358+615.284C146.358+615.622+145.495+615.783+143.768+615.766C142.041+615.749+139.959+615.741+137.522+615.741C135.592+615.741+134.196+615.665+133.332+615.512C132.469+615.36+131.894+615.072+131.606+614.649C131.318+614.226+131.174+613.574+131.174+612.694C131.174+612.119+131.344+610.866+131.682+608.936C132.325+605.348+133.316+602.47+134.653+600.303C135.99+598.137+138.038+596.368+140.797+594.997C143.556+593.626+147.357+592.534+152.198+591.721C160.323+590.333+167.043+589.639+172.358+589.639C176.285+589.639+179.383+589.8+181.651+590.122C183.919+590.443+185.586+590.909+186.653+591.518C187.719+592.128+188.396+592.729+188.684+593.321C188.972+593.913+189.353+594.938+189.827+596.393L191.401+601.065C191.502+601.37+191.587+601.615+191.655+601.801C191.722+601.988+191.782+602.182+191.832+602.385C191.883+602.589+191.909+602.775+191.909+602.944C191.909+604.264+191.612+605.449+191.02+606.499C190.428+607.548+189.344+609.122+187.77+611.221C186.196+613.32+185.036+614.962+184.291+616.147C175.557+630.332+169.599+640.827+166.416+647.632Z" opacity="1" fill="#49525d"/>
<path d="M224.376+641.741L224.376+644.94C221.431+647.953+218.884+650.416+216.734+652.329C214.584+654.242+212.705+655.689+211.097+656.671C209.489+657.652+208.126+658.143+207.009+658.143C204.369+658.143+203.048+656.586+203.048+653.471C203.048+650.966+203.869+648.063+205.511+644.762C207.153+641.462+209.514+637.577+212.595+633.108C211.072+633.954+209.633+634.928+208.279+636.028C206.925+637.128+205.723+638.279+204.673+639.481C203.624+640.683+202.744+641.707+202.033+642.553C199.832+645.025+197.716+647.555+195.685+650.145C193.654+652.735+192.283+654.419+191.572+655.198C190.861+655.977+190.184+656.366+189.54+656.366C186.9+656.366+185.579+653.116+185.579+646.616C185.579+644.483+185.901+642.13+186.544+639.557C187.188+636.984+188.914+633.582+191.724+629.35C197.648+620.481+202.718+613.227+206.933+607.591C211.148+601.954+214.643+597.688+217.419+594.794C220.195+591.899+222.057+590.486+223.005+590.553C224.19+590.655+225.147+590.892+225.874+591.264C226.602+591.637+226.966+592.06+226.966+592.534C226.966+593.38+226.382+594.777+225.214+596.723C224.046+598.67+222.04+601.708+219.197+605.839C216.116+610.206+213.932+613.278+212.646+615.055C211.359+616.833+209.438+619.355+206.882+622.622C204.326+625.889+201.99+628.8+199.874+631.356C197.759+633.912+195.346+636.68+192.638+639.659L192.638+645.753C197.175+640.708+201.102+636.578+204.419+633.362C207.737+630.146+210.547+627.717+212.849+626.075C215.151+624.433+216.844+623.612+217.927+623.612C218.943+623.612+219.891+624.213+220.771+625.415C221.651+626.617+222.091+627.607+222.091+628.385C222.091+628.724+221.922+629.147+221.583+629.655C219.146+632.566+217.208+634.979+215.769+636.891C214.33+638.804+213.221+640.514+212.443+642.02C211.664+643.527+211.275+644.822+211.275+645.905C211.275+647.496+212.037+648.292+213.56+648.292C215.185+648.292+218.79+646.108+224.376+641.741Z" opacity="1" fill="#49525d"/>
<path d="M234.907+643.569L234.907+644.839C234.907+646.836+235.397+648.393+236.379+649.51C237.361+650.628+238.647+651.186+240.239+651.186C241.897+651.186+243.616+650.797+245.393+650.018C247.17+649.24+248.939+648.207+250.7+646.921C252.46+645.634+254.61+643.908+257.149+641.741L257.149+644.839C253.323+649.443+249.735+652.972+246.383+655.426C243.032+657.881+239.629+659.108+236.176+659.108C233.163+659.108+230.776+657.94+229.016+655.604C227.256+653.268+226.375+650.069+226.375+646.007C226.375+642.452+227.205+639.227+228.864+636.333C230.522+633.438+233.231+630.383+236.989+627.167C239.562+624.966+242.118+623.307+244.657+622.19C247.196+621.073+249.464+620.514+251.461+620.514C253.052+620.514+254.313+620.878+255.244+621.606C256.175+622.334+256.641+623.426+256.641+624.882C256.641+627.014+255.845+629.139+254.254+631.255C252.663+633.371+250.234+635.469+246.967+637.551C243.7+639.634+239.68+641.639+234.907+643.569ZM235.414+640.268C238.461+639.083+241.068+637.611+243.235+635.85C245.401+634.09+247.001+632.406+248.034+630.798C249.066+629.19+249.582+628.013+249.582+627.268C249.582+626.49+249.227+626.1+248.516+626.1C247.907+626.1+246.916+626.49+245.545+627.268C244.174+628.047+242.786+629.063+241.381+630.315C239.976+631.568+238.715+633.04+237.598+634.733C236.481+636.426+235.753+638.271+235.414+640.268Z" opacity="1" fill="#49525d"/>
<path d="M297.1+632.651C302.246+627.979+307.239+624.509+312.08+622.241C316.921+619.973+320.662+618.839+323.303+618.839C324.014+618.839+324.674+619.135+325.283+619.727C325.893+620.32+326.375+621.005+326.731+621.784C327.086+622.563+327.264+623.138+327.264+623.51C327.264+624.12+327.027+624.568+326.553+624.856C326.079+625.144+325.25+625.491+324.065+625.897C324.302+626.439+324.606+627.133+324.979+627.979C325.351+628.826+325.639+629.511+325.842+630.036C326.045+630.561+326.147+631.026+326.147+631.432C326.147+632.245+325.326+633.76+323.684+635.977C322.042+638.195+320.891+639.828+320.231+640.878C319.571+641.927+319.24+643.214+319.24+644.737C319.24+647.242+320.391+648.495+322.694+648.495C325.063+648.495+328.77+646.277+333.815+641.843L333.815+644.94C325.25+654.453+319.122+659.21+315.432+659.21C314.112+659.21+313.172+658.778+312.614+657.915C312.055+657.051+311.776+655.774+311.776+654.081C311.776+651.406+312.74+647.53+314.67+642.452C309.727+647.936+306.054+651.838+303.651+654.157C301.247+656.476+299.266+657.635+297.709+657.635C296.964+657.635+296.033+656.992+294.916+655.706C293.799+654.419+292.809+652.752+291.946+650.704C291.082+648.656+290.651+646.531+290.651+644.331C290.651+642.74+290.803+641.411+291.108+640.344C291.412+639.278+292.005+638.186+292.885+637.069C293.765+635.952+295.17+634.479+297.1+632.651ZM321.424+627.065C312.622+631.094+306.35+634.513+302.61+637.323C298.869+640.133+296.998+643.027+296.998+646.007C296.998+647.09+297.184+647.979+297.557+648.673C297.929+649.367+298.437+649.714+299.08+649.714C299.453+649.714+300.113+649.477+301.061+649.003C304.615+646.904+307.865+644.17+310.811+640.801C313.756+637.433+317.294+632.854+321.424+627.065Z" opacity="1" fill="#49525d"/>
<path d="M335.153+646.007L335.153+642.452C339.893+637.306+343.981+632.465+347.417+627.928C350.853+623.392+353.57+619.787+355.568+617.112C357.565+614.438+359.325+612.55+360.849+611.45C362.372+610.35+364.285+609.8+366.587+609.8C367.738+609.8+368.314+610.24+368.314+611.12C368.314+611.831+367.848+612.88+366.917+614.268C365.986+615.656+364.793+617.078+363.337+618.534C361.407+620.43+359.52+622.808+357.675+625.669C355.83+628.529+353.739+632.177+351.403+636.612C353.232+635.19+355.339+633.506+357.726+631.559C360.112+629.613+362.059+628.089+363.566+626.989C365.072+625.889+366.562+625.017+368.034+624.374C369.507+623.731+370.988+623.409+372.478+623.409C373.426+623.409+374.043+623.578+374.331+623.917C374.619+624.255+374.763+624.915+374.763+625.897C374.763+628.47+374.137+630.984+372.884+633.438C371.631+635.893+369.837+638.44+367.501+641.081C365.165+643.721+362.288+646.599+358.868+649.714C360.053+650.154+361.272+650.374+362.525+650.374C366.452+650.374+371.716+647.378+378.318+641.385L378.318+645.042C375.745+647.344+373.231+649.51+370.777+651.542C368.322+653.573+366.012+655.198+363.845+656.417C361.678+657.635+359.681+658.245+357.853+658.245C357.176+658.245+356.456+658.169+355.695+658.016C354.933+657.864+354.23+657.678+353.587+657.458C352.944+657.238+352.114+656.925+351.099+656.518C350.083+656.112+349.305+655.824+348.763+655.655C347.68+655.926+347.07+656.061+346.935+656.061C345.75+656.061+344.362+655.587+342.771+654.639C341.653+656.806+340.426+659.607+339.089+663.044C337.752+666.48+336.626+669.214+335.712+671.245C334.798+673.276+333.579+675.223+332.056+677.085C331.209+677.931+330.617+678.354+330.278+678.354C328.823+678.354+328.095+677.068+328.095+674.495C328.095+672.26+328.543+669.933+329.441+667.512C330.338+665.092+331.438+662.798+332.741+660.632C334.045+658.465+335.475+656.273+337.032+654.055C338.59+651.838+339.69+650.188+340.333+649.104C345.682+639.896+349.846+632.059+352.825+625.593C345.039+635.072+339.148+641.876+335.153+646.007ZM355.771+648.495C359.122+644.974+361.619+641.978+363.261+639.507C364.903+637.035+365.724+635.139+365.724+633.819C365.724+632.566+365.097+631.94+363.845+631.94C362.152+631.94+359.774+633.337+356.71+636.13C353.646+638.923+350.489+642.689+347.239+647.428C349.745+647.158+351.42+647.065+352.267+647.149C353.113+647.234+354.281+647.682+355.771+648.495Z" opacity="1" fill="#49525d"/>
<path d="M379.758+646.007L379.758+642.452C384.498+637.306+388.585+632.465+392.022+627.928C395.458+623.392+398.175+619.787+400.172+617.112C402.169+614.438+403.93+612.55+405.453+611.45C406.977+610.35+408.889+609.8+411.192+609.8C412.343+609.8+412.918+610.24+412.918+611.12C412.918+611.831+412.453+612.88+411.522+614.268C410.591+615.656+409.397+617.078+407.942+618.534C406.012+620.43+404.124+622.808+402.279+625.669C400.434+628.529+398.344+632.177+396.008+636.612C397.836+635.19+399.943+633.506+402.33+631.559C404.717+629.613+406.664+628.089+408.17+626.989C409.677+625.889+411.166+625.017+412.639+624.374C414.111+623.731+415.593+623.409+417.082+623.409C418.03+623.409+418.648+623.578+418.936+623.917C419.223+624.255+419.367+624.915+419.367+625.897C419.367+628.47+418.741+630.984+417.488+633.438C416.236+635.893+414.442+638.44+412.106+641.081C409.77+643.721+406.892+646.599+403.473+649.714C404.658+650.154+405.876+650.374+407.129+650.374C411.056+650.374+416.32+647.378+422.922+641.385L422.922+645.042C420.349+647.344+417.835+649.51+415.381+651.542C412.927+653.573+410.616+655.198+408.449+656.417C406.283+657.635+404.285+658.245+402.457+658.245C401.78+658.245+401.061+658.169+400.299+658.016C399.537+657.864+398.835+657.678+398.192+657.458C397.548+657.238+396.719+656.925+395.703+656.518C394.688+656.112+393.909+655.824+393.367+655.655C392.284+655.926+391.675+656.061+391.539+656.061C390.354+656.061+388.966+655.587+387.375+654.639C386.258+656.806+385.031+659.607+383.693+663.044C382.356+666.48+381.231+669.214+380.317+671.245C379.402+673.276+378.184+675.223+376.66+677.085C375.814+677.931+375.221+678.354+374.883+678.354C373.427+678.354+372.699+677.068+372.699+674.495C372.699+672.26+373.148+669.933+374.045+667.512C374.942+665.092+376.042+662.798+377.346+660.632C378.649+658.465+380.08+656.273+381.637+654.055C383.194+651.838+384.294+650.188+384.938+649.104C390.287+639.896+394.451+632.059+397.43+625.593C389.643+635.072+383.753+641.876+379.758+646.007ZM400.375+648.495C403.727+644.974+406.223+641.978+407.865+639.507C409.507+637.035+410.328+635.139+410.328+633.819C410.328+632.566+409.702+631.94+408.449+631.94C406.757+631.94+404.378+633.337+401.315+636.13C398.251+638.923+395.094+642.689+391.844+647.428C394.349+647.158+396.025+647.065+396.871+647.149C397.718+647.234+398.886+647.682+400.375+648.495Z" opacity="1" fill="#49525d"/>
<path d="M484.861+641.741L484.861+645.245C482.83+647.276+481.29+648.749+480.24+649.663C479.191+650.577+477.752+651.508+475.924+652.456C475.924+655.537+475.771+658.16+475.467+660.327C475.162+662.494+474.485+664.77+473.436+667.157C472.386+669.544+470.761+672.159+468.561+675.003C466.394+677.813+464.261+679.971+462.162+681.477C460.063+682.984+458.421+683.737+457.236+683.737C455.916+683.737+454.697+682.654+453.58+680.487C452.463+678.32+451.904+675.629+451.904+672.413C451.904+669.332+452.429+666.082+453.479+662.663C454.528+659.244+456.153+654.826+458.354+649.409C456.695+647.242+455.865+645.093+455.865+642.96C455.865+641.233+456.305+639.913+457.186+638.999C458.066+638.085+459.318+637.255+460.943+636.51C462.128+634.649+463.254+633.066+464.32+631.762C465.387+630.459+466.834+628.724+468.662+626.557C472.183+617.891+476.313+609.427+481.053+601.167C482.373+598.865+483.321+597.316+483.896+596.52C484.472+595.725+485.081+595.327+485.725+595.327C486.3+595.327+486.808+595.75+487.248+596.596C487.688+597.443+487.908+598.543+487.908+599.897C487.908+601.556+487.73+603.079+487.375+604.468C487.02+605.856+486.512+607.252+485.852+608.657C485.191+610.062+484.277+611.746+483.109+613.71C481.941+615.673+481.222+616.892+480.951+617.366C479.258+620.345+477.346+623.646+475.213+627.268C473.08+630.891+471.396+633.751+470.16+635.85C468.924+637.949+468.036+639.524+467.494+640.573C469.322+642.164+470.77+643.535+471.836+644.686C472.902+645.837+473.825+647.208+474.604+648.8C475.755+648.359+476.804+647.835+477.752+647.225C478.7+646.616+479.817+645.778+481.104+644.712C482.39+643.645+483.643+642.655+484.861+641.741ZM469.678+655.35L469.576+654.284C468.628+654.385+467.867+654.411+467.291+654.36C466.715+654.309+466.047+654.165+465.285+653.928C464.523+653.691+463.931+653.471+463.508+653.268C463.085+653.065+462.619+652.862+462.111+652.659C459.538+658.956+458.252+664.186+458.252+668.35C458.252+670.415+458.565+672.176+459.191+673.632C459.818+675.087+460.554+675.815+461.4+675.815C462.281+675.815+463.389+675.037+464.727+673.479C466.064+671.922+467.223+669.62+468.205+666.573C469.187+663.526+469.678+659.785+469.678+655.35Z" opacity="1" fill="#49525d"/>
<path d="M519.817+641.639L519.817+645.042C517.583+647.073+515.789+648.427+514.435+649.104C513.08+649.781+511.134+650.052+508.595+649.917C504.194+655.13+500.317+657.737+496.966+657.737C495.07+657.737+493.343+657.111+491.786+655.858C490.229+654.606+488.985+652.896+488.054+650.729C487.123+648.563+486.657+646.142+486.657+643.468C486.657+641.301+487.377+638.897+488.815+636.257C490.254+633.616+492.116+631.153+494.401+628.868C496.686+626.583+499.132+624.738+501.739+623.333C504.346+621.928+506.767+621.225+509.001+621.225C510.592+621.225+511.845+621.471+512.759+621.962C513.673+622.453+514.13+623.138+514.13+624.018C514.13+624.695+513.741+625.474+512.962+626.354C514.248+626.625+515.129+627.074+515.602+627.7C516.076+628.326+516.313+629.469+516.313+631.128C516.313+632.753+515.933+634.801+515.171+637.272C514.409+639.744+513.368+642.063+512.048+644.229L512.962+645.143L513.724+645.143C514.299+645.143+514.866+644.999+515.425+644.712C515.983+644.424+516.483+644.119+516.923+643.798C517.363+643.476+518.328+642.757+519.817+641.639ZM509.356+628.284C506.546+629.977+504.143+631.509+502.145+632.88C500.148+634.251+498.455+635.639+497.067+637.044C495.679+638.449+494.748+639.862+494.274+641.284C493.428+645.076+493.005+647.124+493.005+647.428C493.005+649.663+494.562+650.78+497.677+650.78C499.132+650.78+501.57+649.527+504.989+647.022C504.414+645.431+504.126+643.908+504.126+642.452C504.126+640.319+504.566+638.144+505.446+635.926C506.326+633.709+507.63+631.162+509.356+628.284Z" opacity="1" fill="#49525d"/>
<path d="M521.613+645.651L521.613+642.35C523.441+640.184+524.829+638.339+525.777+636.815C524.694+636.443+523.907+635.986+523.416+635.444C522.925+634.902+522.68+634.09+522.68+633.007C522.68+631.788+523.187+630.247+524.203+628.385C525.219+626.524+526.471+624.78+527.961+623.155C529.45+621.53+530.805+620.481+532.023+620.007C532.497+619.77+532.954+619.651+533.394+619.651C534.072+619.651+534.41+619.973+534.41+620.616C534.41+621.191+533.885+622.359+532.836+624.12C539.81+623.037+544.211+622.495+546.039+622.495C546.75+622.495+547.241+622.563+547.512+622.698C548.087+623.003+548.561+623.714+548.933+624.831C549.306+625.948+549.492+627.065+549.492+628.182C549.492+628.893+549.179+629.663+548.553+630.493C547.926+631.322+546.851+632.533+545.328+634.124C543.534+636.053+542.027+638.152+540.808+640.421C539.59+642.689+538.98+644.399+538.98+645.55C538.98+647.141+539.962+647.936+541.926+647.936C543.991+647.936+547.579+645.837+552.691+641.639L552.691+645.042C549.881+647.987+547.562+650.306+545.734+651.999C543.906+653.691+542.213+655.037+540.656+656.036C539.099+657.035+537.711+657.534+536.492+657.534C535.07+657.534+533.885+656.882+532.937+655.579C531.989+654.275+531.516+652.388+531.516+649.917C531.516+648.461+531.888+646.802+532.633+644.94C533.377+643.078+534.469+641.055+535.908+638.872C537.347+636.688+538.963+634.513+540.758+632.346C539.81+632.55+538.743+632.761+537.558+632.981C536.374+633.201+535.121+633.43+533.801+633.667C532.48+633.904+531.465+634.09+530.754+634.225C528.655+638.423+525.608+642.232+521.613+645.651Z" opacity="1" fill="#49525d"/>
<path d="M597.314+613.151L586.396+618.889C584.704+619.736+583.569+620.159+582.994+620.159C581.944+620.159+581.174+619.829+580.683+619.169C580.192+618.509+579.947+617.484+579.947+616.096C579.947+614.505+580.286+612.669+580.963+610.587C581.64+608.505+582.418+606.973+583.299+605.991C584.213+604.975+586.354+603.579+589.722+601.801C593.091+600.024+597.145+598.238+601.885+596.444C606.624+594.65+611.567+593.16+616.713+591.975C621.859+590.79+626.564+590.198+630.83+590.198C633.809+590.198+636.01+590.672+637.431+591.62C638.853+592.568+639.564+595.073+639.564+599.135C639.564+601.336+638.811+603.782+637.304+606.473C635.798+609.165+633.987+611.78+631.871+614.319C629.755+616.858+625.836+621.361+620.115+627.827C623.162+627.353+625.396+627.048+626.818+626.913C628.24+626.777+630.898+626.49+634.791+626.05C639.293+619.55+642.933+614.361+645.709+610.485C648.485+606.609+650.838+603.393+652.767+600.837C654.697+598.281+655.848+596.816+656.22+596.444C656.898+595.665+657.465+595.369+657.922+595.555C658.379+595.742+658.607+596.444+658.607+597.663C658.607+599.051+658.463+600.185+658.176+601.065C657.888+601.945+657.439+602.817+656.83+603.68C656.22+604.544+655.899+605.009+655.865+605.077C654.985+606.533+653.715+608.437+652.056+610.79C650.398+613.143+648.773+615.47+647.181+617.772C645.59+620.074+643.779+622.8+641.748+625.948C645.539+626.083+649.28+626.574+652.97+627.421L643.83+639.811C641.325+639.473+637.99+639.303+633.826+639.303C632.81+641.335+632.023+642.926+631.465+644.077C630.906+645.228+630.432+646.32+630.043+647.352C629.653+648.385+629.459+649.341+629.459+650.221C629.459+650.763+629.62+651.482+629.941+652.38C630.263+653.277+630.424+653.793+630.424+653.928C630.424+654.606+629.924+655.325+628.926+656.087C627.927+656.848+626.759+657.517+625.422+658.093C624.084+658.668+623.043+658.956+622.299+658.956C621.046+658.956+620.42+658.008+620.42+656.112C620.42+652.185+622.434+646.718+626.463+639.71C621.114+640.15+614.969+640.945+608.029+642.096C606.032+644.737+604.22+647.242+602.595+649.612C600.97+651.982+599.642+653.979+598.609+655.604C597.577+657.229+596.815+658.313+596.324+658.854C595.833+659.396+595.3+659.667+594.724+659.667C593.743+659.667+592.913+659.244+592.236+658.397C591.931+658.059+591.737+657.72+591.652+657.382C591.567+657.043+591.525+656.671+591.525+656.264C591.525+655.858+591.525+655.503+591.525+655.198C591.525+654.792+591.745+654.199+592.185+653.421C592.625+652.642+593.675+651.093+595.334+648.774C596.993+646.455+598.211+644.703+598.99+643.518C598.11+643.62+596.976+643.671+595.588+643.671C593.827+643.671+592.397+643.349+591.297+642.706C590.196+642.063+589.646+641.267+589.646+640.319C589.646+639.236+589.934+638.076+590.51+636.841C591.085+635.605+591.83+634.572+592.744+633.743C593.658+632.913+594.572+632.499+595.486+632.499C596.095+632.499+596.823+632.685+597.67+633.057L610.771+629.807C618.084+621.885+623.534+615.622+627.123+611.018C630.711+606.414+632.506+603.452+632.506+602.132C632.506+601.387+632.303+600.769+631.896+600.278C631.49+599.787+630.923+599.406+630.195+599.135C629.467+598.865+628.629+598.729+627.681+598.729C626.564+598.729+624.795+599.034+622.375+599.643C619.954+600.253+617.068+601.15+613.717+602.335C610.365+603.52+606.184+605.162+601.174+607.26C597.45+608.784+595.588+609.749+595.588+610.155C595.588+610.629+595.842+610.934+596.349+611.069C596.857+611.204+597.509+611.306+598.304+611.374C599.1+611.441+599.498+611.56+599.498+611.729C599.498+611.865+599.303+612.051+598.914+612.288C598.525+612.525+597.991+612.813+597.314+613.151Z" opacity="1" fill="#49525d"/>
<path d="M680.005+638.288C675.096+644.788+671.363+649.409+668.807+652.151C666.251+654.893+664.161+656.264+662.536+656.264C661.249+656.264+660.065+655.731+658.981+654.665C657.898+653.598+657.06+652.16+656.467+650.348C655.875+648.537+655.579+646.599+655.579+644.534C655.579+643.18+655.706+641.961+655.96+640.878C656.214+639.794+656.696+638.601+657.407+637.298C658.118+635.994+659.057+634.581+660.225+633.057C661.393+631.534+662.824+629.807+664.516+627.878C665.532+626.693+666.387+625.694+667.081+624.882C667.775+624.069+668.452+623.519+669.112+623.231C669.772+622.943+670.847+622.8+672.337+622.8C673.42+622.8+674.453+622.943+675.434+623.231C676.416+623.519+676.907+623.815+676.907+624.12C676.907+624.729+676.408+625.829+675.409+627.421C674.41+629.012+672.802+630.95+670.585+633.235C668.367+635.52+665.803+637.763+662.891+639.964C662.248+641.961+661.926+643.484+661.926+644.534C661.926+645.99+662.485+646.718+663.602+646.718C664.009+646.718+664.686+646.371+665.634+645.676C666.581+644.982+668.181+643.645+670.432+641.665C672.684+639.684+674.706+637.932+676.501+636.409C677.821+635.258+679.353+633.54+681.096+631.255C682.84+628.969+684.253+627.251+685.337+626.1C687.842+623.46+689.551+621.742+690.466+620.946C691.38+620.15+692.26+619.753+693.106+619.753C693.919+619.753+694.469+620.007+694.757+620.514C695.044+621.022+695.188+622.055+695.188+623.612C695.188+624.323+695.12+624.899+694.985+625.339C694.85+625.779+694.57+626.346+694.147+627.04C693.724+627.734+692.869+629.012+691.583+630.874C690.296+632.736+688.773+634.936+687.012+637.475C686.065+638.829+685.235+640.311+684.524+641.919C683.813+643.527+683.458+644.737+683.458+645.55C683.458+647.31+684.152+648.19+685.54+648.19C686.691+648.19+688.028+647.716+689.551+646.768C691.075+645.82+693.411+644.111+696.559+641.639L696.559+645.042C692.598+648.698+689.67+651.356+687.774+653.014C685.878+654.673+684.236+655.926+682.848+656.772C681.46+657.619+680.14+658.042+678.887+658.042C676.044+658.042+674.622+656.349+674.622+652.964C674.622+651.677+675.045+649.942+675.891+647.759C676.738+645.575+678.109+642.418+680.005+638.288Z" opacity="1" fill="#49525d"/>
<path d="M738.879+645.143L722.019+659.007C717.28+667.199+712.963+673.318+709.07+677.364C705.177+681.41+702.282+683.432+700.386+683.432C699.371+683.432+698.863+682.806+698.863+681.553C698.863+679.116+700.099+676.001+702.57+672.21C703.552+670.72+704.677+669.264+705.947+667.843C707.216+666.421+708.418+665.193+709.552+664.161C710.687+663.128+712.185+661.842+714.047+660.301C715.909+658.761+717.178+657.703+717.855+657.128C721.241+650.221+723.678+644.94+725.168+641.284C721.985+644.669+719.209+647.445+716.84+649.612C714.47+651.779+712.295+653.446+710.314+654.614C708.334+655.782+706.548+656.366+704.957+656.366C703.23+656.366+701.639+654.986+700.183+652.227C698.728+649.468+698+646.633+698+643.721C698+642.367+698.313+640.945+698.939+639.456C699.565+637.966+700.547+636.375+701.884+634.682C703.222+632.99+704.923+631.255+706.988+629.477C709.053+627.7+711.474+625.965+714.25+624.272C719.497+620.988+723.576+619.346+726.488+619.346C728.655+619.346+729.738+620.142+729.738+621.733C729.738+623.934+727.385+626.083+722.679+628.182C719.802+629.435+716.95+631.094+714.123+633.159C711.296+635.224+709.011+637.416+707.267+639.735C705.524+642.054+704.652+644.145+704.652+646.007C704.652+646.921+704.872+647.649+705.312+648.19C705.752+648.732+706.328+649.003+707.039+649.003C708.224+649.003+709.578+648.461+711.101+647.378C712.625+646.294+714.876+644.382+717.855+641.639C719.209+640.387+721.012+638.364+723.263+635.571C725.515+632.778+727.377+630.645+728.849+629.173C730.322+627.7+731.651+626.964+732.836+626.964C733.513+626.964+734.063+627.175+734.486+627.598C734.909+628.022+735.121+628.639+735.121+629.452C735.121+631.009+734.503+633.269+733.267+636.231C732.032+639.193+729.806+644.043+726.59+650.78L738.879+641.843L738.879+645.143Z" opacity="1" fill="#49525d"/>
<path d="M773.581+641.639L773.581+645.042C771.346+647.073+769.552+648.427+768.198+649.104C766.844+649.781+764.897+650.052+762.358+649.917C757.957+655.13+754.081+657.737+750.729+657.737C748.833+657.737+747.107+657.111+745.549+655.858C743.992+654.606+742.748+652.896+741.817+650.729C740.886+648.563+740.421+646.142+740.421+643.468C740.421+641.301+741.14+638.897+742.579+636.257C744.018+633.616+745.879+631.153+748.165+628.868C750.45+626.583+752.896+624.738+755.503+623.333C758.109+621.928+760.53+621.225+762.764+621.225C764.355+621.225+765.608+621.471+766.522+621.962C767.436+622.453+767.893+623.138+767.893+624.018C767.893+624.695+767.504+625.474+766.725+626.354C768.012+626.625+768.892+627.074+769.366+627.7C769.84+628.326+770.077+629.469+770.077+631.128C770.077+632.753+769.696+634.801+768.934+637.272C768.172+639.744+767.131+642.063+765.811+644.229L766.725+645.143L767.487+645.143C768.062+645.143+768.629+644.999+769.188+644.712C769.747+644.424+770.246+644.119+770.686+643.798C771.126+643.476+772.091+642.757+773.581+641.639ZM763.12+628.284C760.31+629.977+757.906+631.509+755.909+632.88C753.911+634.251+752.219+635.639+750.831+637.044C749.443+638.449+748.512+639.862+748.038+641.284C747.191+645.076+746.768+647.124+746.768+647.428C746.768+649.663+748.325+650.78+751.44+650.78C752.896+650.78+755.333+649.527+758.753+647.022C758.177+645.431+757.889+643.908+757.889+642.452C757.889+640.319+758.329+638.144+759.21+635.926C760.09+633.709+761.393+631.162+763.12+628.284Z" opacity="1" fill="#49525d"/>
</g>
</g>
<g id="Layer 1" vectornator:layerName="Layer 1" visibility="hidden">
<path d="M379.138+485.934C344.275+476.984+181.429+447.148+126.842+369.078C72.2546+291.007+74.5482+296.974+75.9243+260.674C77.3005+224.374+144.209+189.392+152.673+190.36C188.755+194.486+174.621+175.54+181.06+175.815C187.5+176.089+204.688+144.315+204.688+144.315C204.688+144.315+284.741+81.6696+365.247+201.339C393.859+243.871+388.446+210.877+388.446+210.877C362.669+136.898+386.017+99.063+453.908+110.997C521.798+122.932+572.256+159.232+574.091+175.144C575.926+191.057+571.119+222.07+569.454+228.206C562.515+253.795+569.204+262.308+577.762+259.679C593.519+254.839+605.283+247.248+625.01+256.199C644.735+265.149+660.788+283.051+648.861+297.969C636.935+312.887+575.468+357.144+570.879+368.083C566.294+379.023+489.688+449.635+450.237+467.537C410.789+485.436+413.998+494.886+379.138+485.934Z" fill-rule="evenodd" fill="url(#LinearGradient_2)" opacity="1"/>
<path d="M239.715+370.692C252.238+343.59+291.418+352.403+333.026+369.918C374.634+387.434+401.63+417.298+389.108+444.4C376.583+471.501+336.485+471.981+294.876+454.466C253.269+436.95+227.191+397.793+239.715+370.692Z" fill-rule="evenodd" fill="#ffffff" opacity="1"/>
<path d="M456.56+451.581C441.045+437.126+451.688+398.974+480.331+366.366C508.977+333.757+544.773+319.042+560.288+333.497C575.803+347.954+565.16+386.106+536.517+418.714C507.871+451.324+472.075+466.037+456.56+451.581Z" fill-rule="evenodd" fill="#ffffff" opacity="1"/>
<path stroke="#211611" fill-rule="evenodd" stroke-width="0.1" d="M155.172+189.739C105.173+217.393+90.3361+238.722+97.734+265.546C106.563+297.559+131.439+329.67+135.02+335.196C143.842+348.813+197.01+392.311+210.61+401.889C230.326+415.775+248.246+431.573+269.49+442.864C289.402+453.448+312.916+458.654+333.797+467.302C351.126+474.479+367.688+478.897+385.172+487.604L385.597+487.488C325.44+476.298+205.799+447.833+149.528+395.821C93.2581+343.809+74.3006+285.878+72.3445+260.775C70.0876+231.813+123.795+192.505+154.917+189.463" fill="#49525d" stroke-linecap="butt" opacity="1" stroke-linejoin="miter"/>
<path stroke="#211611" fill-rule="evenodd" stroke-width="0.1" d="M140.816+239.947C142.244+229.262+162.431+199.226+167.417+191.399C174.815+179.784+181.957+170.106+198.028+170.659C205.24+170.907+210.273+168.723+220.513+191.46C228.49+209.171+221.396+244.048+236.191+289.399C250.987+334.751+338.088+351.419+338.088+351.419C299.823+355.012+278.654+349.583+264.966+345.547C215.203+330.867+207.42+324.601+199.292+281.326C196.686+267.453+207.647+242.187+205.724+228.115C201.82+199.55+192.013+193.314+185.412+197.656C162.709+212.589+141.223+230.923+140.376+239.792" fill="#49525d" stroke-linecap="butt" opacity="1" stroke-linejoin="miter"/>
<path stroke="#211611" fill-rule="evenodd" stroke-width="0.1" d="M178.641+147.153C198.774+85.9027+356.885+138.609+371.863+204.647L365.53+207.538C340.934+164.034+306.864+142.297+261.037+134.71C190.886+123.095+211.627+180.959+178.722+147.358" fill="#49525d" stroke-linecap="butt" opacity="1" stroke-linejoin="miter"/>
<path stroke="#211611" fill-rule="evenodd" stroke-width="0.1" d="M570.096+230.426C568.315+207.921+571.475+189.303+561.515+167.197C549.286+140.05+504.873+127.679+478.914+125.362C432.333+121.204+418.658+120.591+398.684+133.435C387.878+140.384+385.664+149.141+390.222+162.426C393.696+172.557+398.759+184.906+399.7+196.188C401.504+217.808+383.978+237.003+382.097+257.839C380.194+278.907+379.862+289.872+384.368+309.673C386.865+320.645+388.319+331.963+390.425+343.031L389.907+343.165C386.345+330.972+384.128+318.116+379.877+306.178C373.771+289.023+364.708+272.701+366.185+253.803C367.6+235.681+384.079+216.131+381.764+197.923C380.576+188.583+374.573+180.63+371.044+172.275C363.929+155.436+366.865+132.089+378.259+118.069C393.186+99.699+449.588+95.3153+505.159+109.431C531.689+116.17+564.43+131.817+575.055+162.283C582.762+184.376+574.071+208.156+572.31+230.426" fill="#49525d" stroke-linecap="butt" opacity="1" stroke-linejoin="miter"/>
<path stroke="#211611" fill-rule="evenodd" stroke-width="0.1" d="M551.359+215.637C546.709+212.773+534.344+220.747+528.34+222.61C523.427+224.135+517.736+228.945+516.777+233.208C512.377+252.748+526.247+266.088+522.922+285.729C519.422+306.423+481.342+340.47+472.145+358.757L461.151+355.218C478.924+310.845+497.767+298.522+499.883+290.943C505.546+270.643+491.779+247.931+516.491+212.702C520.837+206.506+544.531+209.628+549.668+213.436" fill="#49525d" stroke-linecap="butt" opacity="1" stroke-linejoin="miter"/>
<path stroke="#211611" fill-rule="evenodd" stroke-width="0.1" d="M536.661+238.304C545.688+250.879+567.472+250.336+581.798+252.458C598.393+254.915+618.883+238.495+635.661+244.283C650.109+249.269+662.103+283.024+649.882+303.076C646.052+309.359+622.724+328.378+616.429+333.253C607.562+340.12+597.692+346.503+588.199+352.321L586.412+349.743C594.511+340.906+599.577+330.854+608.931+323.318C615.323+318.17+627.029+293.543+625.964+290.409C621.78+278.084+594.519+276.491+584.492+274.061C559.303+267.956+551.627+262.152+534.501+239.474" fill="#49525d" stroke-linecap="butt" opacity="1" stroke-linejoin="miter"/>
<path stroke="#211611" fill-rule="evenodd" stroke-width="0.1" d="M336.057+369.766C348.041+371.895+379.718+378.577+388.866+411.968C399.022+449.032+382.999+465.555+379.388+470.684C365.051+491.056+303.838+466.508+287.854+456.432C275.71+448.774+250.908+427.387+244.618+413.636C225.337+371.48+250.663+346.975+272.414+357.657C298.571+370.504+303.558+380.409+303.558+380.409C294.697+371.844+272.686+372.674+268.351+376.739C255.826+388.483+262.258+403.16+265.643+413.437C266.875+417.175+283.089+444.671+295.143+451.089C314.961+461.639+329.123+468.743+348.582+465.547C365.827+462.712+373.15+432.932+366.876+418.213C360.602+403.492+354.338+384.446+333.01+370.867" fill="#49525d" stroke-linecap="butt" opacity="1" stroke-linejoin="miter"/>
<path d="M465.984+385.281C472.196+370.895+493.766+342.196+504.631+333.864C519.148+322.73+526.304+317.218+544.752+316.86C554.766+316.665+569.673+339.98+572.145+354.04C577.468+384.317+534.573+417.133+516.328+433.517C506.389+442.443+478.738+461.294+465.226+458.613C450.943+455.78+448.925+438.257+450.742+425.624C454.843+397.108+473.975+374.478+497.151+361.533L498.865+363.804C490.838+372.78+483.169+382.232+475.955+391.991C466.507+404.774+458.97+418.757+457.95+435.319C457.679+439.706+460.548+451.862+466.304+450.888C493.129+446.338+530.874+412.481+549.134+390.527C558.424+379.358+565.374+370.743+567.075+357.247C567.49+353.952+557.929+348.823+556.184+348.135C545.825+344.049+532.346+343.033+521.682+346.562C501.172+353.354+481.994+372.117+467.572+388.722" fill-rule="evenodd" fill="#49525d" opacity="1"/>
<path stroke="#211611" fill-rule="evenodd" stroke-width="0.1" d="M506.172+362.776C521.432+354.179+533.918+366.941+532.758+384.356C531.454+403.969+504.695+436.847+489.998+421.995C469.892+401.673+498.055+341.021+517.903+359.208L519.865+370.001C509.266+371.828+519.868+361.157+514.132+371.963C510.614+378.59+502.744+390.607+511.418+390.767C529.774+391.099+535.957+363.822+508.384+369.967" fill="#49525d" stroke-linecap="butt" opacity="1" stroke-linejoin="miter"/>
<path stroke="#211611" fill-rule="evenodd" stroke-width="0.1" d="M346.043+453.605C354.717+451.674+356.611+431.55+356.001+440.933C353.077+485.869+260.92+426.292+279.959+402.237C312.565+361.038+370.559+403.833+356.029+446.831L328.27+454.169C329.482+453.277+334.985+423.92+327.932+416.332C320.648+408.493+311.432+404.843+310.329+420.041C308.815+440.892+321.963+450.653+345.453+453.878" fill="#49525d" stroke-linecap="butt" opacity="1" stroke-linejoin="miter"/>
</g>
<g id="Zwart" vectornator:layerName="Zwart">
<g opacity="1">
<path d="M446.698+421.712C417.539+416.14+231.501+379.495+172.085+294.519C112.669+209.542+115.165+216.037+116.663+176.526C118.161+137.015+190.988+98.9387+200.201+99.9922C239.475+104.484+224.09+83.8618+231.099+84.1604C238.108+84.4589+256.817+49.8747+256.817+49.8747C256.817+49.8747+343.952-18.3126+431.578+111.943C462.721+158.237+456.829+122.324+456.829+122.324C428.773+41.8011+454.186+0.61942+528.082+13.6094C601.978+26.5994+656.899+66.1109+658.897+83.4309C660.894+100.751+655.662+134.507+653.849+141.186C646.296+169.039+653.577+178.304+662.892+175.444C680.043+170.174+692.848+161.912+714.32+171.655C735.789+181.397+737.407+197.489+724.425+213.727C711.443+229.964+660.364+286.215+617.227+333.672C574.053+381.169+475.857+427.284+446.698+421.712Z" fill-rule="evenodd" fill="url(#LinearGradient_3)" opacity="1"/>
<path stroke="#211611" stroke-width="0.1" d="M353.392+369.697C331.423+353.874+318.564+320.342+332.55+307.506C346.537+294.671+368.775+294.756+430.134+327.487C454.023+340.23+458.456+378.591+440.593+385.017C401.35+399.132+375.362+385.52+353.392+369.697Z" fill="#ffffff" stroke-linecap="butt" opacity="1" stroke-linejoin="miter"/>
<path stroke="#211611" stroke-width="0.1" d="M529.714+330.625C540.416+308.136+594.798+258.668+609.332+263.817C623.866+268.966+673.365+259.134+634.406+315.582C620.259+336.08+549.966+391.802+535.432+386.653C520.897+381.503+519.012+353.115+529.714+330.625Z" fill="#ffffff" stroke-linecap="butt" opacity="1" stroke-linejoin="miter"/>
<path stroke="#211611" stroke-width="0.1" d="M366.307+368.792C344.337+352.969+337.865+329.737+351.852+316.901C365.839+304.066+394.987+306.488+416.956+322.311C438.926+338.133+445.398+361.366+431.411+374.201C417.425+387.036+388.276+384.615+366.307+368.792Z" fill="#363a3f" stroke-linecap="butt" opacity="1" stroke-linejoin="miter"/>
<path stroke="#211611" stroke-width="0.1" d="M550.119+310.673C560.822+288.184+581.28+274.127+595.814+279.276C610.348+284.426+613.455+306.831+602.752+329.321C592.05+351.81+571.592+365.867+557.058+360.718C542.524+355.568+539.417+333.163+550.119+310.673Z" fill="#363a3f" stroke-linecap="butt" opacity="1" stroke-linejoin="miter"/>
<path stroke="#211611" fill-rule="evenodd" stroke-width="0.1" d="M198.779+98.4979C144.358+128.597+128.208+151.814+136.261+181.01C145.871+215.855+172.948+250.807+176.844+256.821C186.447+271.642+244.319+318.988+259.122+329.414C280.581+344.528+300.087+361.724+323.21+374.013C344.883+385.533+370.477+391.2+393.205+400.613C412.067+408.424+430.094+413.233+449.125+422.711L449.588+422.585C384.109+410.405+253.885+379.422+192.637+322.809C131.389+266.196+110.754+203.14+108.625+175.817C106.169+144.293+164.627+101.508+198.502+98.1969" fill="#363a3f" stroke-linecap="butt" opacity="1" stroke-linejoin="miter"/>
<path stroke="#211611" fill-rule="evenodd" stroke-width="0.1" d="M183.154+153.147C184.708+141.516+206.681+108.823+212.107+100.304C220.16+87.6621+227.934+77.1274+245.427+77.7295C253.276+77.9994+258.755+75.6224+269.901+100.371C278.583+119.648+270.861+157.61+286.966+206.973C303.07+256.336+397.876+274.479+397.876+274.479C356.226+278.39+333.184+272.481+318.286+268.087C264.12+252.109+255.65+245.289+246.802+198.186C243.966+183.086+255.897+155.585+253.803+140.268C249.554+109.176+238.879+102.389+231.695+107.114C206.983+123.368+183.597+143.324+182.675+152.978" fill="#363a3f" stroke-linecap="butt" opacity="1" stroke-linejoin="miter"/>
<path stroke="#211611" fill-rule="evenodd" stroke-width="0.1" d="M224.325+52.1448C246.239-14.524+418.335+42.8443+434.639+114.725L427.745+117.871C400.974+70.5189+363.89+46.8584+314.009+38.6001C237.652+25.9583+260.229+88.9412+224.413+52.367" fill="#363a3f" stroke-linecap="butt" opacity="1" stroke-linejoin="miter"/>
<path stroke="#211611" fill-rule="evenodd" stroke-width="0.1" d="M650.407+142.783C648.468+118.288+651.908+98.0226+641.067+73.9615C627.756+44.4127+579.415+30.9477+551.159+28.4259C500.457+23.9004+485.573+23.2332+463.832+37.2133C452.071+44.7765+449.661+54.308+454.621+68.7687C458.403+79.795+463.913+93.2373+464.938+105.517C466.901+129.049+447.826+149.943+445.778+172.622C443.707+195.553+443.345+207.487+448.249+229.04C450.968+240.983+452.55+253.302+454.843+265.349L454.279+265.495C450.401+252.224+447.988+238.23+443.362+225.237C436.715+206.564+426.85+188.798+428.458+168.228C429.998+148.503+447.935+127.224+445.416+107.405C444.122+97.2387+437.588+88.5827+433.747+79.4883C426.003+61.1597+429.199+35.7473+441.6+20.4881C457.848+0.492629+519.239-4.27884+579.726+11.0856C608.602+18.4206+644.24+35.4522+655.805+68.6127C664.194+92.6599+654.733+118.543+652.817+142.783" fill="#363a3f" stroke-linecap="butt" opacity="1" stroke-linejoin="miter"/>
<path stroke="#211611" fill-rule="evenodd" stroke-width="0.1" d="M630.012+126.687C624.951+123.569+611.492+132.248+604.957+134.276C599.61+135.936+593.415+141.172+592.371+145.811C587.582+167.08+602.679+181.6+599.06+202.979C595.25+225.503+553.802+262.562+543.791+282.467L531.825+278.614C551.17+230.316+571.679+216.903+573.983+208.654C580.147+186.558+565.162+161.837+592.06+123.491C596.79+116.748+622.58+120.146+628.172+124.29" fill="#363a3f" stroke-linecap="butt" opacity="1" stroke-linejoin="miter"/>
<path stroke="#211611" fill-rule="evenodd" stroke-width="0.1" d="M614.014+151.359C623.84+165.046+647.55+164.454+663.144+166.764C681.207+169.439+703.51+151.567+721.772+157.867C737.498+163.293+750.552+200.034+737.251+221.86C733.081+228.699+707.69+249.4+700.839+254.706C691.187+262.18+680.444+269.128+670.111+275.461L668.167+272.655C676.982+263.036+682.495+252.095+692.677+243.893C699.635+238.289+712.376+211.484+711.217+208.073C706.663+194.657+676.99+192.923+666.076+190.278C638.659+183.634+630.304+177.316+611.663+152.632" fill="#363a3f" stroke-linecap="butt" opacity="1" stroke-linejoin="miter"/>
<path stroke="#211611" fill-rule="evenodd" stroke-width="0.1" d="M421.915+323.1C421.915+323.1+466.784+340.014+454.238+374.529C441.078+410.729+376.384+393.099+358.986+382.744C345.767+374.875+318.772+352.897+311.926+338.766C290.938+295.447+307.823+281.411+334.066+278.782C361.745+276.01+434.033+291.25+458.719+337.46C434.555+316.611+365.098+282.516+340.834+313.119C338.67+315.847+330.232+323.121+334.81+338.562C339.389+354.002+354.043+372.295+367.163+378.89C388.734+389.732+397.29+390.594+418.673+389.127C430.56+388.311+446.087+374.532+446.604+363.626C447.881+336.665+421.915+323.1+421.915+323.1Z" fill="#363a3f" stroke-linecap="butt" opacity="1" stroke-linejoin="miter"/>
<path d="M531.825+310.31C538.586+294.651+567.325+264.44+579.151+255.372C594.952+243.253+602.741+237.253+622.821+236.863C633.721+236.651+649.946+262.028+652.637+277.332C658.431+310.288+611.742+346.007+591.883+363.839C581.064+373.556+550.968+394.073+536.261+391.156C520.714+388.072+518.517+368.999+520.495+355.249C524.959+324.209+551.21+296.557+576.436+282.467L572.875+287.96C564.138+297.729+555.791+308.018+547.938+318.64C537.655+332.553+529.451+347.774+528.34+365.801C528.046+370.576+531.168+383.807+537.433+382.747C566.632+377.795+607.715+340.942+627.591+317.046C637.703+304.889+645.267+295.513+647.118+280.822C647.57+277.237+637.164+271.653+635.264+270.904C623.988+266.457+609.318+265.352+597.71+269.193C575.386+276.586+547.523+292.236+531.825+310.31" fill-rule="evenodd" fill="#363a3f" opacity="1"/>
<path stroke="#211611" stroke-width="0.1" d="M571.691+290.372C575.059+288.634+578.387+297.249+578.387+297.249C578.387+297.249+563.016+302.809+555.094+312.656C554.134+313.849+553.093+306.131+553.764+305.153C558.762+297.87+569.129+291.695+571.691+290.372Z" fill="#ffffff" stroke-linecap="butt" opacity="1" stroke-linejoin="miter"/>
<path stroke="#211611" stroke-width="0.1" d="M613.894+427.427" fill="#ffffff" stroke-linecap="butt" opacity="1" stroke-linejoin="miter"/>
<path d="M391.297+336.353C399.763+327.482+409.108+327.322+412.171+335.994C415.233+344.666+410.853+358.888+402.387+367.759C393.921+376.63+384.576+376.79+381.513+368.118C378.451+359.446+382.831+345.224+391.297+336.353Z" opacity="1" fill="#ffffff"/>
<path stroke="#211611" stroke-width="0.1" d="M556.501+341.287C552.194+331.057+553.412+319.91+559.221+316.388C565.03+312.866+573.23+318.304+577.537+328.533C581.844+338.763+580.626+349.91+574.817+353.432C569.008+356.954+560.808+351.516+556.501+341.287Z" fill="#ffffff" stroke-linecap="butt" opacity="1" stroke-linejoin="miter"/>
<path stroke="#211611" stroke-width="0.1" d="M366.014+317.876C372.427+314.995+386.152+315.181+380.009+318.107C369.464+323.13+365.351+331.349+364.122+337.213C362.893+343.078+353.905+328.568+353.905+328.568C353.905+328.568+358.797+321.119+366.014+317.876Z" fill="#ffffff" stroke-linecap="butt" opacity="1" stroke-linejoin="miter"/>
</g>
</g>
<g id="Layer 2" vectornator:layerName="Layer 2">
<g opacity="1">
<path stroke="#ffffff" stroke-width="0.1" d="M144.158+501.513C144.158+509.057+142.846+515.48+140.222+520.783C137.598+526.085+134.018+530.377+129.48+533.657C124.943+536.937+119.64+539.342+113.572+540.873C107.504+542.403+100.972+543.169+93.9743+543.169L93.9743+569.245L59.0423+569.245L59.0423+459.857L93.9743+459.857C100.972+459.857+107.504+460.622+113.572+462.153C119.64+463.683+124.943+466.089+129.48+469.369C134.018+472.649+137.598+476.94+140.222+482.243C142.846+487.545+144.158+493.969+144.158+501.513ZM93.9743+513.649L95.4503+513.649C100.042+513.649+103.35+512.583+105.372+510.451C107.395+508.319+108.406+505.339+108.406+501.513C108.406+497.686+107.395+494.707+105.372+492.575C103.35+490.443+100.042+489.377+95.4503+489.377L93.9743+489.377L93.9743+513.649Z" fill="#2f343c" stroke-linecap="butt" opacity="1" stroke-linejoin="miter"/>
<path stroke="#ffffff" stroke-width="0.1" d="M162.143+514.633C162.143+506.761+163.647+499.326+166.653+492.329C169.66+485.331+173.76+479.236+178.953+474.043C184.147+468.849+190.242+464.749+197.239+461.743C204.237+458.736+211.671+457.233+219.543+457.233C227.415+457.233+234.85+458.736+241.847+461.743C248.845+464.749+254.94+468.849+260.133+474.043C265.327+479.236+269.427+485.331+272.433+492.329C275.44+499.326+276.943+506.761+276.943+514.633C276.943+522.505+275.44+529.939+272.433+536.937C269.427+543.934+265.327+550.029+260.133+555.223C254.94+560.416+248.845+564.516+241.847+567.523C234.85+570.529+227.415+572.033+219.543+572.033C211.671+572.033+204.237+570.529+197.239+567.523C190.242+564.516+184.147+560.416+178.953+555.223C173.76+550.029+169.66+543.934+166.653+536.937C163.647+529.939+162.143+522.505+162.143+514.633ZM196.583+514.633C196.583+517.803+197.185+520.783+198.387+523.571C199.59+526.359+201.23+528.791+203.307+530.869C205.385+532.946+207.817+534.586+210.605+535.789C213.393+536.991+216.373+537.593+219.543+537.593C222.714+537.593+225.693+536.991+228.481+535.789C231.269+534.586+233.702+532.946+235.779+530.869C237.857+528.791+239.497+526.359+240.699+523.571C241.902+520.783+242.503+517.803+242.503+514.633C242.503+511.462+241.902+508.483+240.699+505.695C239.497+502.907+237.857+500.474+235.779+498.397C233.702+496.319+231.269+494.679+228.481+493.477C225.693+492.274+222.714+491.673+219.543+491.673C216.373+491.673+213.393+492.274+210.605+493.477C207.817+494.679+205.385+496.319+203.307+498.397C201.23+500.474+199.59+502.907+198.387+505.695C197.185+508.483+196.583+511.462+196.583+514.633Z" fill="#2f343c" stroke-linecap="butt" opacity="1" stroke-linejoin="miter"/>
<path stroke="#ffffff" stroke-width="0.1" d="M383.324+501.513C383.324+509.057+382.012+515.48+379.388+520.783C376.764+526.085+373.184+530.377+368.646+533.657C364.109+536.937+358.806+539.342+352.738+540.873C346.67+542.403+340.138+543.169+333.14+543.169L333.14+569.245L298.208+569.245L298.208+459.857L333.14+459.857C340.138+459.857+346.67+460.622+352.738+462.153C358.806+463.683+364.109+466.089+368.646+469.369C373.184+472.649+376.764+476.94+379.388+482.243C382.012+487.545+383.324+493.969+383.324+501.513ZM333.14+513.649L334.616+513.649C339.208+513.649+342.516+512.583+344.538+510.451C346.561+508.319+347.572+505.339+347.572+501.513C347.572+497.686+346.561+494.707+344.538+492.575C342.516+490.443+339.208+489.377+334.616+489.377L333.14+489.377L333.14+513.649Z" fill="#2f343c" stroke-linecap="butt" opacity="1" stroke-linejoin="miter"/>
<path stroke="#ffffff" stroke-width="0.1" d="M488.886+501.513C488.886+509.057+487.574+515.48+484.95+520.783C482.326+526.085+478.745+530.377+474.208+533.657C469.67+536.937+464.368+539.342+458.3+540.873C452.232+542.403+445.699+543.169+438.702+543.169L438.702+569.245L403.77+569.245L403.77+459.857L438.702+459.857C445.699+459.857+452.232+460.622+458.3+462.153C464.368+463.683+469.67+466.089+474.208+469.369C478.745+472.649+482.326+476.94+484.95+482.243C487.574+487.545+488.886+493.969+488.886+501.513ZM438.702+513.649L440.178+513.649C444.77+513.649+448.077+512.583+450.1+510.451C452.122+508.319+453.134+505.339+453.134+501.513C453.134+497.686+452.122+494.707+450.1+492.575C448.077+490.443+444.77+489.377+440.178+489.377L438.702+489.377L438.702+513.649Z" fill="#2f343c" stroke-linecap="butt" opacity="1" stroke-linejoin="miter"/>
<path stroke="#ffffff" stroke-width="0.1" d="M534.259+522.177L500.311+459.857L539.179+459.857L551.807+482.981L564.271+459.857L603.139+459.857L569.191+522.177L569.191+569.245L534.259+569.245L534.259+522.177Z" fill="#2f343c" stroke-linecap="butt" opacity="1" stroke-linejoin="miter"/>
<path stroke="#ffffff" stroke-width="0.1" d="M687.544+497.085C685.576+495.335+683.116+493.996+680.164+493.067C677.212+492.137+674.314+491.673+671.472+491.673C668.301+491.673+665.404+492.247+662.78+493.395C660.156+494.543+657.887+496.128+655.974+498.151C654.06+500.173+652.557+502.606+651.464+505.449C650.37+508.291+649.824+511.353+649.824+514.633C649.824+517.913+650.425+520.974+651.628+523.817C652.83+526.659+654.47+529.092+656.548+531.115C658.625+533.137+661.058+534.723+663.846+535.871C666.634+537.019+669.613+537.593+672.784+537.593C676.501+537.593+679.89+536.8+682.952+535.215C686.013+533.629+688.637+531.47+690.824+528.737L680.984+528.737L680.984+505.777L723.132+505.777L723.132+542.185C720.617+546.667+717.61+550.74+714.112+554.403C710.613+558.065+706.704+561.209+702.386+563.833C698.067+566.457+693.393+568.479+688.364+569.901C683.334+571.322+678.141+572.033+672.784+572.033C664.912+572.033+657.477+570.557+650.48+567.605C643.482+564.653+637.387+560.607+632.194+555.469C627+550.33+622.9+544.262+619.894+537.265C616.887+530.267+615.384+522.723+615.384+514.633C615.384+506.761+616.805+499.326+619.648+492.329C622.49+485.331+626.399+479.236+631.374+474.043C636.348+468.849+642.252+464.749+649.086+461.743C655.919+458.736+663.272+457.233+671.144+457.233C677.266+457.233+682.569+457.834+687.052+459.037C691.534+460.239+695.306+461.606+698.368+463.137C701.976+464.886+704.982+466.799+707.388+468.877L687.544+497.085Z" fill="#2f343c" stroke-linecap="butt" opacity="1" stroke-linejoin="miter"/>
<path stroke="#ffffff" stroke-width="0.1" d="M741.937+514.633C741.937+506.761+743.44+499.326+746.447+492.329C749.453+485.331+753.553+479.236+758.747+474.043C763.94+468.849+770.035+464.749+777.033+461.743C784.03+458.736+791.465+457.233+799.337+457.233C807.209+457.233+814.643+458.736+821.641+461.743C828.638+464.749+834.733+468.849+839.927+474.043C845.12+479.236+849.22+485.331+852.227+492.329C855.233+499.326+856.737+506.761+856.737+514.633C856.737+522.505+855.233+529.939+852.227+536.937C849.22+543.934+845.12+550.029+839.927+555.223C834.733+560.416+828.638+564.516+821.641+567.523C814.643+570.529+807.209+572.033+799.337+572.033C791.465+572.033+784.03+570.529+777.033+567.523C770.035+564.516+763.94+560.416+758.747+555.223C753.553+550.029+749.453+543.934+746.447+536.937C743.44+529.939+741.937+522.505+741.937+514.633ZM776.377+514.633C776.377+517.803+776.978+520.783+778.181+523.571C779.383+526.359+781.023+528.791+783.101+530.869C785.178+532.946+787.611+534.586+790.399+535.789C793.187+536.991+796.166+537.593+799.337+537.593C802.507+537.593+805.487+536.991+808.275+535.789C811.063+534.586+813.495+532.946+815.573+530.869C817.65+528.791+819.29+526.359+820.493+523.571C821.695+520.783+822.297+517.803+822.297+514.633C822.297+511.462+821.695+508.483+820.493+505.695C819.29+502.907+817.65+500.474+815.573+498.397C813.495+496.319+811.063+494.679+808.275+493.477C805.487+492.274+802.507+491.673+799.337+491.673C796.166+491.673+793.187+492.274+790.399+493.477C787.611+494.679+785.178+496.319+783.101+498.397C781.023+500.474+779.383+502.907+778.181+505.695C776.978+508.483+776.377+511.462+776.377+514.633Z" fill="#2f343c" stroke-linecap="butt" opacity="1" stroke-linejoin="miter"/>
</g>
<g opacity="1">
<path d="M166.198+635.085L167.874+636.355C167.434+637.303+167.011+638.132+166.605+638.843C166.198+639.554+165.708+640.417+165.132+641.433C164.557+642.449+164.116+643.21+163.812+643.718C161.273+648.153+158.886+650.37+156.652+650.37C155.704+650.37+154.891+649.998+154.214+649.253C153.537+648.508+153.198+647.493+153.198+646.206C153.198+644.378+153.85+641.873+155.154+638.691C156.457+635.508+158.471+631.59+161.197+626.935C163.922+622.28+167.35+617.007+171.48+611.116C175.61+605.226+180.265+599.014+185.445+592.48C182.465+592.04+178.928+591.82+174.831+591.82C170.126+591.82+164.887+592.344+159.115+593.394C153.342+594.443+148.315+595.654+144.032+597.025C139.75+598.396+137.609+599.403+137.609+600.046C137.609+600.283+137.693+600.444+137.863+600.529C138.032+600.613+138.311+600.681+138.7+600.732C139.09+600.782+139.589+600.842+140.198+600.909C144.159+601.451+146.14+602.06+146.14+602.738C146.14+603.076+145.277+603.237+143.55+603.22C141.823+603.203+139.741+603.195+137.304+603.195C135.374+603.195+133.978+603.118+133.115+602.966C132.251+602.814+131.676+602.526+131.388+602.103C131.1+601.68+130.956+601.028+130.956+600.148C130.956+599.572+131.126+598.32+131.464+596.39C132.107+592.801+133.098+589.924+134.435+587.757C135.772+585.59+137.82+583.822+140.579+582.45C143.338+581.079+147.139+579.988+151.98+579.175C160.105+577.787+166.825+577.093+172.14+577.093C176.067+577.093+179.165+577.254+181.433+577.575C183.701+577.897+185.368+578.363+186.435+578.972C187.501+579.581+188.178+580.182+188.466+580.775C188.754+581.367+189.135+582.391+189.609+583.847L191.183+588.519C191.284+588.824+191.369+589.069+191.437+589.255C191.504+589.441+191.564+589.636+191.615+589.839C191.665+590.042+191.691+590.228+191.691+590.398C191.691+591.718+191.394+592.903+190.802+593.952C190.21+595.002+189.126+596.576+187.552+598.675C185.978+600.774+184.818+602.416+184.073+603.601C175.339+617.786+169.381+628.281+166.198+635.085Z" opacity="1" fill="#2f343c"/>
<path d="M224.158+629.195L224.158+632.394C221.213+635.407+218.666+637.87+216.516+639.782C214.366+641.695+212.487+643.143+210.879+644.124C209.271+645.106+207.908+645.597+206.791+645.597C204.151+645.597+202.83+644.04+202.83+640.925C202.83+638.42+203.651+635.517+205.293+632.216C206.935+628.915+209.296+625.031+212.377+620.562C210.854+621.408+209.415+622.381+208.061+623.482C206.707+624.582+205.505+625.733+204.455+626.935C203.406+628.137+202.526+629.161+201.815+630.007C199.614+632.478+197.498+635.009+195.467+637.599C193.436+640.189+192.065+641.873+191.354+642.652C190.643+643.43+189.966+643.82+189.322+643.82C186.682+643.82+185.362+640.57+185.362+634.07C185.362+631.937+185.683+629.584+186.326+627.011C186.97+624.438+188.696+621.036+191.506+616.804C197.431+607.934+202.5+600.681+206.715+595.044C210.93+589.407+214.425+585.142+217.201+582.247C219.977+579.353+221.839+577.939+222.787+578.007C223.972+578.109+224.929+578.346+225.656+578.718C226.384+579.09+226.748+579.514+226.748+579.988C226.748+580.834+226.164+582.23+224.996+584.177C223.828+586.124+221.822+589.162+218.979+593.292C215.898+597.659+213.714+600.732+212.428+602.509C211.141+604.286+209.22+606.809+206.664+610.075C204.108+613.342+201.772+616.254+199.656+618.81C197.541+621.366+195.128+624.133+192.42+627.113L192.42+633.206C196.957+628.162+200.884+624.032+204.201+620.816C207.519+617.6+210.329+615.171+212.631+613.529C214.933+611.887+216.626+611.066+217.709+611.066C218.725+611.066+219.673+611.667+220.553+612.868C221.433+614.07+221.873+615.06+221.873+615.839C221.873+616.178+221.704+616.601+221.365+617.109C218.928+620.02+216.99+622.432+215.551+624.345C214.112+626.258+213.003+627.967+212.225+629.474C211.446+630.98+211.057+632.275+211.057+633.359C211.057+634.95+211.819+635.745+213.342+635.745C214.967+635.745+218.572+633.562+224.158+629.195Z" opacity="1" fill="#2f343c"/>
<path d="M234.689+631.023L234.689+632.292C234.689+634.29+235.18+635.847+236.161+636.964C237.143+638.081+238.43+638.64+240.021+638.64C241.68+638.64+243.398+638.251+245.175+637.472C246.952+636.693+248.721+635.661+250.482+634.374C252.242+633.088+254.392+631.361+256.931+629.195L256.931+632.292C253.105+636.896+249.517+640.426+246.165+642.88C242.814+645.335+239.411+646.562+235.958+646.562C232.945+646.562+230.558+645.394+228.798+643.058C227.038+640.722+226.157+637.523+226.157+633.46C226.157+629.906+226.987+626.681+228.646+623.786C230.305+620.892+233.013+617.837+236.771+614.62C239.344+612.42+241.9+610.761+244.439+609.644C246.978+608.527+249.246+607.968+251.243+607.968C252.834+607.968+254.096+608.332+255.027+609.06C255.957+609.788+256.423+610.879+256.423+612.335C256.423+614.468+255.627+616.592+254.036+618.708C252.445+620.824+250.016+622.923+246.749+625.005C243.482+627.087+239.462+629.093+234.689+631.023ZM235.196+627.722C238.243+626.537+240.85+625.064+243.017+623.304C245.183+621.544+246.783+619.859+247.816+618.251C248.848+616.643+249.364+615.467+249.364+614.722C249.364+613.943+249.009+613.554+248.298+613.554C247.689+613.554+246.698+613.943+245.327+614.722C243.956+615.501+242.568+616.516+241.163+617.769C239.758+619.021+238.497+620.494+237.38+622.187C236.263+623.879+235.535+625.725+235.196+627.722Z" opacity="1" fill="#2f343c"/>
<path d="M296.882+620.105C302.028+615.433+307.021+611.963+311.862+609.695C316.703+607.426+320.444+606.292+323.085+606.292C323.796+606.292+324.456+606.588+325.065+607.181C325.675+607.773+326.157+608.459+326.513+609.238C326.868+610.016+327.046+610.592+327.046+610.964C327.046+611.574+326.809+612.022+326.335+612.31C325.861+612.598+325.032+612.945+323.847+613.351C324.084+613.893+324.388+614.587+324.761+615.433C325.133+616.279+325.421+616.965+325.624+617.49C325.827+618.014+325.929+618.48+325.929+618.886C325.929+619.699+325.108+621.213+323.466+623.431C321.824+625.648+320.673+627.282+320.013+628.331C319.353+629.381+319.022+630.667+319.022+632.191C319.022+634.696+320.174+635.949+322.476+635.949C324.845+635.949+328.552+633.731+333.597+629.296L333.597+632.394C325.032+641.907+318.904+646.663+315.214+646.663C313.894+646.663+312.954+646.232+312.396+645.368C311.837+644.505+311.558+643.227+311.558+641.534C311.558+638.86+312.522+634.984+314.452+629.906C309.509+635.39+305.836+639.292+303.433+641.611C301.029+643.93+299.049+645.089+297.491+645.089C296.746+645.089+295.815+644.446+294.698+643.159C293.581+641.873+292.591+640.206+291.728+638.157C290.864+636.109+290.433+633.985+290.433+631.784C290.433+630.193+290.585+628.865+290.89+627.798C291.194+626.732+291.787+625.64+292.667+624.523C293.547+623.406+294.952+621.933+296.882+620.105ZM321.206+614.519C312.404+618.547+306.133+621.967+302.392+624.777C298.651+627.587+296.78+630.481+296.78+633.46C296.78+634.544+296.966+635.432+297.339+636.126C297.711+636.82+298.219+637.167+298.862+637.167C299.235+637.167+299.895+636.93+300.843+636.456C304.397+634.357+307.647+631.624+310.593+628.255C313.538+624.887+317.076+620.308+321.206+614.519Z" opacity="1" fill="#2f343c"/>
<path d="M334.936+633.46L334.936+629.906C339.675+624.76+343.763+619.919+347.199+615.382C350.635+610.846+353.352+607.24+355.35+604.566C357.347+601.891+359.107+600.004+360.631+598.904C362.154+597.803+364.067+597.253+366.369+597.253C367.52+597.253+368.096+597.693+368.096+598.574C368.096+599.284+367.63+600.334+366.699+601.722C365.768+603.11+364.575+604.532+363.119+605.988C361.189+607.883+359.302+610.262+357.457+613.122C355.612+615.983+353.521+619.631+351.186+624.066C353.014+622.644+355.121+620.96+357.508+619.013C359.895+617.066+361.841+615.543+363.348+614.443C364.854+613.342+366.344+612.471+367.816+611.827C369.289+611.184+370.77+610.863+372.26+610.863C373.208+610.863+373.825+611.032+374.113+611.37C374.401+611.709+374.545+612.369+374.545+613.351C374.545+615.924+373.919+618.437+372.666+620.892C371.413+623.346+369.619+625.894+367.283+628.534C364.947+631.175+362.07+634.053+358.65+637.167C359.835+637.607+361.054+637.827+362.307+637.827C366.234+637.827+371.498+634.831+378.1+628.839L378.1+632.495C375.527+634.797+373.013+636.964+370.559+638.995C368.104+641.027+365.794+642.652+363.627+643.87C361.46+645.089+359.463+645.699+357.635+645.699C356.958+645.699+356.238+645.622+355.477+645.47C354.715+645.318+354.012+645.131+353.369+644.911C352.726+644.691+351.896+644.378+350.881+643.972C349.865+643.566+349.087+643.278+348.545+643.109C347.462+643.379+346.852+643.515+346.717+643.515C345.532+643.515+344.144+643.041+342.553+642.093C341.436+644.26+340.208+647.061+338.871+650.497C337.534+653.934+336.408+656.667+335.494+658.699C334.58+660.73+333.361+662.676+331.838+664.538C330.992+665.385+330.399+665.808+330.061+665.808C328.605+665.808+327.877+664.521+327.877+661.949C327.877+659.714+328.325+657.387+329.223+654.966C330.12+652.546+331.22+650.252+332.523+648.085C333.827+645.919+335.257+643.726+336.814+641.509C338.372+639.292+339.472+637.641+340.115+636.558C345.464+627.35+349.628+619.512+352.607+613.046C344.821+622.525+338.93+629.33+334.936+633.46ZM355.553+635.949C358.904+632.428+361.401+629.432+363.043+626.96C364.685+624.489+365.506+622.593+365.506+621.273C365.506+620.02+364.88+619.394+363.627+619.394C361.934+619.394+359.556+620.79+356.492+623.583C353.428+626.376+350.271+630.143+347.021+634.882C349.527+634.611+351.202+634.518+352.049+634.603C352.895+634.687+354.063+635.136+355.553+635.949Z" opacity="1" fill="#2f343c"/>
<path d="M379.54+633.46L379.54+629.906C384.28+624.76+388.367+619.919+391.804+615.382C395.24+610.846+397.957+607.24+399.954+604.566C401.951+601.891+403.712+600.004+405.235+598.904C406.759+597.803+408.671+597.253+410.974+597.253C412.125+597.253+412.7+597.693+412.7+598.574C412.7+599.284+412.235+600.334+411.304+601.722C410.373+603.11+409.179+604.532+407.724+605.988C405.794+607.883+403.906+610.262+402.061+613.122C400.216+615.983+398.126+619.631+395.79+624.066C397.618+622.644+399.726+620.96+402.112+619.013C404.499+617.066+406.446+615.543+407.952+614.443C409.459+613.342+410.948+612.471+412.421+611.827C413.893+611.184+415.375+610.863+416.864+610.863C417.812+610.863+418.43+611.032+418.718+611.37C419.005+611.709+419.149+612.369+419.149+613.351C419.149+615.924+418.523+618.437+417.27+620.892C416.018+623.346+414.224+625.894+411.888+628.534C409.552+631.175+406.674+634.053+403.255+637.167C404.44+637.607+405.658+637.827+406.911+637.827C410.838+637.827+416.102+634.831+422.704+628.839L422.704+632.495C420.131+634.797+417.617+636.964+415.163+638.995C412.709+641.027+410.398+642.652+408.231+643.87C406.065+645.089+404.067+645.699+402.239+645.699C401.562+645.699+400.843+645.622+400.081+645.47C399.319+645.318+398.617+645.131+397.974+644.911C397.33+644.691+396.501+644.378+395.485+643.972C394.47+643.566+393.691+643.278+393.149+643.109C392.066+643.379+391.457+643.515+391.321+643.515C390.136+643.515+388.748+643.041+387.157+642.093C386.04+644.26+384.813+647.061+383.476+650.497C382.138+653.934+381.013+656.667+380.099+658.699C379.184+660.73+377.966+662.676+376.442+664.538C375.596+665.385+375.003+665.808+374.665+665.808C373.209+665.808+372.481+664.521+372.481+661.949C372.481+659.714+372.93+657.387+373.827+654.966C374.724+652.546+375.824+650.252+377.128+648.085C378.431+645.919+379.862+643.726+381.419+641.509C382.976+639.292+384.076+637.641+384.72+636.558C390.069+627.35+394.233+619.512+397.212+613.046C389.425+622.525+383.535+629.33+379.54+633.46ZM400.157+635.949C403.509+632.428+406.005+629.432+407.647+626.96C409.289+624.489+410.11+622.593+410.11+621.273C410.11+620.02+409.484+619.394+408.231+619.394C406.539+619.394+404.16+620.79+401.097+623.583C398.033+626.376+394.876+630.143+391.626+634.882C394.131+634.611+395.807+634.518+396.653+634.603C397.5+634.687+398.668+635.136+400.157+635.949Z" opacity="1" fill="#2f343c"/>
<path d="M484.643+629.195L484.643+632.699C482.612+634.73+481.072+636.202+480.022+637.116C478.973+638.031+477.534+638.962+475.706+639.909C475.706+642.99+475.554+645.614+475.249+647.781C474.944+649.947+474.267+652.224+473.218+654.611C472.168+656.997+470.543+659.613+468.343+662.456C466.176+665.266+464.043+667.424+461.944+668.931C459.845+670.437+458.203+671.191+457.018+671.191C455.698+671.191+454.479+670.107+453.362+667.941C452.245+665.774+451.686+663.083+451.686+659.866C451.686+656.786+452.211+653.536+453.261+650.116C454.31+646.697+455.935+642.279+458.136+636.863C456.477+634.696+455.647+632.546+455.647+630.413C455.647+628.687+456.087+627.366+456.968+626.452C457.848+625.538+459.1+624.709+460.725+623.964C461.91+622.102+463.036+620.519+464.102+619.216C465.169+617.913+466.616+616.178+468.444+614.011C471.965+605.344+476.095+596.881+480.835+588.62C482.155+586.318+483.103+584.769+483.679+583.974C484.254+583.178+484.863+582.781+485.507+582.781C486.082+582.781+486.59+583.204+487.03+584.05C487.47+584.896+487.69+585.997+487.69+587.351C487.69+589.01+487.513+590.533+487.157+591.921C486.802+593.309+486.294+594.706+485.634+596.111C484.973+597.516+484.059+599.2+482.891+601.163C481.723+603.127+481.004+604.346+480.733+604.82C479.04+607.799+477.128+611.1+474.995+614.722C472.862+618.344+471.178+621.205+469.942+623.304C468.707+625.403+467.818+626.977+467.276+628.027C469.104+629.618+470.552+630.989+471.618+632.14C472.684+633.291+473.607+634.662+474.386+636.253C475.537+635.813+476.586+635.288+477.534+634.679C478.482+634.07+479.599+633.232+480.886+632.165C482.172+631.099+483.425+630.109+484.643+629.195ZM469.46+642.804L469.358+641.738C468.41+641.839+467.649+641.865+467.073+641.814C466.498+641.763+465.829+641.619+465.067+641.382C464.305+641.145+463.713+640.925+463.29+640.722C462.867+640.519+462.401+640.316+461.893+640.113C459.32+646.409+458.034+651.64+458.034+655.804C458.034+657.869+458.347+659.629+458.973+661.085C459.6+662.541+460.336+663.269+461.182+663.269C462.063+663.269+463.171+662.49+464.509+660.933C465.846+659.376+467.005+657.074+467.987+654.027C468.969+650.98+469.46+647.239+469.46+642.804Z" opacity="1" fill="#2f343c"/>
<path d="M519.599+629.093L519.599+632.495C517.365+634.527+515.571+635.881+514.217+636.558C512.862+637.235+510.916+637.506+508.377+637.37C503.976+642.584+500.099+645.191+496.748+645.191C494.852+645.191+493.125+644.564+491.568+643.312C490.011+642.059+488.767+640.35+487.836+638.183C486.905+636.016+486.439+633.596+486.439+630.921C486.439+628.754+487.159+626.351+488.597+623.71C490.036+621.07+491.898+618.607+494.183+616.322C496.469+614.036+498.914+612.191+501.521+610.786C504.128+609.381+506.549+608.679+508.783+608.679C510.374+608.679+511.627+608.924+512.541+609.415C513.455+609.906+513.912+610.592+513.912+611.472C513.912+612.149+513.523+612.928+512.744+613.808C514.03+614.079+514.911+614.527+515.385+615.154C515.858+615.78+516.095+616.922+516.095+618.581C516.095+620.206+515.715+622.254+514.953+624.726C514.191+627.197+513.15+629.516+511.83+631.683L512.744+632.597L513.506+632.597C514.081+632.597+514.648+632.453+515.207+632.165C515.765+631.878+516.265+631.573+516.705+631.251C517.145+630.93+518.11+630.21+519.599+629.093ZM509.138+615.738C506.329+617.43+503.925+618.962+501.927+620.333C499.93+621.704+498.237+623.092+496.849+624.497C495.461+625.902+494.53+627.316+494.056+628.738C493.21+632.529+492.787+634.577+492.787+634.882C492.787+637.116+494.344+638.234+497.459+638.234C498.914+638.234+501.352+636.981+504.771+634.476C504.196+632.885+503.908+631.361+503.908+629.906C503.908+627.773+504.348+625.598+505.228+623.38C506.108+621.163+507.412+618.615+509.138+615.738Z" opacity="1" fill="#2f343c"/>
<path d="M521.395+633.105L521.395+629.804C523.223+627.637+524.611+625.792+525.559+624.269C524.476+623.896+523.689+623.439+523.198+622.898C522.707+622.356+522.462+621.544+522.462+620.46C522.462+619.241+522.969+617.701+523.985+615.839C525.001+613.977+526.253+612.234+527.743+610.609C529.232+608.984+530.587+607.934+531.805+607.46C532.279+607.223+532.736+607.105+533.176+607.105C533.854+607.105+534.192+607.426+534.192+608.07C534.192+608.645+533.667+609.813+532.618+611.574C539.592+610.49+543.993+609.949+545.821+609.949C546.532+609.949+547.023+610.016+547.294+610.152C547.869+610.456+548.343+611.167+548.716+612.284C549.088+613.402+549.274+614.519+549.274+615.636C549.274+616.347+548.961+617.117+548.335+617.947C547.708+618.776+546.633+619.986+545.11+621.577C543.316+623.507+541.809+625.606+540.591+627.874C539.372+630.143+538.762+631.852+538.762+633.003C538.762+634.594+539.744+635.39+541.708+635.39C543.773+635.39+547.361+633.291+552.473+629.093L552.473+632.495C549.663+635.441+547.344+637.76+545.516+639.452C543.688+641.145+541.995+642.491+540.438+643.49C538.881+644.488+537.493+644.988+536.274+644.988C534.852+644.988+533.667+644.336+532.719+643.032C531.772+641.729+531.298+639.842+531.298+637.37C531.298+635.915+531.67+634.256+532.415+632.394C533.16+630.532+534.251+628.509+535.69+626.325C537.129+624.142+538.745+621.967+540.54+619.8C539.592+620.003+538.525+620.215+537.341+620.435C536.156+620.655+534.903+620.883+533.583+621.12C532.262+621.357+531.247+621.544+530.536+621.679C528.437+625.877+525.39+629.685+521.395+633.105Z" opacity="1" fill="#2f343c"/>
<path d="M597.096+600.605L586.178+606.343C584.486+607.189+583.351+607.613+582.776+607.613C581.726+607.613+580.956+607.282+580.465+606.622C579.975+605.962+579.729+604.938+579.729+603.55C579.729+601.959+580.068+600.122+580.745+598.04C581.422+595.958+582.2+594.426+583.081+593.445C583.995+592.429+586.136+591.032+589.504+589.255C592.873+587.478+596.927+585.692+601.667+583.898C606.406+582.103+611.349+580.614+616.495+579.429C621.641+578.244+626.346+577.652+630.612+577.652C633.591+577.652+635.792+578.126+637.213+579.074C638.635+580.021+639.346+582.527+639.346+586.589C639.346+588.79+638.593+591.236+637.087+593.927C635.58+596.618+633.769+599.234+631.653+601.773C629.537+604.312+625.618+608.814+619.897+615.281C622.944+614.807+625.178+614.502+626.6+614.366C628.022+614.231+630.68+613.943+634.573+613.503C639.075+607.003+642.715+601.815+645.491+597.939C648.267+594.062+650.62+590.846+652.549+588.29C654.479+585.734+655.63+584.27+656.003+583.898C656.68+583.119+657.247+582.823+657.704+583.009C658.161+583.195+658.389+583.898+658.389+585.116C658.389+586.504+658.245+587.639+657.958+588.519C657.67+589.399+657.221+590.271+656.612+591.134C656.003+591.997+655.681+592.463+655.647+592.531C654.767+593.986+653.497+595.891+651.838+598.243C650.18+600.596+648.555+602.924+646.963+605.226C645.372+607.528+643.561+610.253+641.53+613.402C645.322+613.537+649.062+614.028+652.753+614.874L643.612+627.265C641.107+626.926+637.772+626.757+633.608+626.757C632.592+628.788+631.805+630.379+631.247+631.531C630.688+632.682+630.214+633.773+629.825+634.806C629.435+635.838+629.241+636.795+629.241+637.675C629.241+638.217+629.402+638.936+629.723+639.833C630.045+640.73+630.206+641.247+630.206+641.382C630.206+642.059+629.706+642.779+628.708+643.54C627.709+644.302+626.541+644.971+625.204+645.546C623.866+646.122+622.825+646.409+622.081+646.409C620.828+646.409+620.202+645.462+620.202+643.566C620.202+639.639+622.216+634.171+626.245+627.163C620.896+627.603+614.751+628.399+607.811+629.55C605.814+632.191+604.003+634.696+602.378+637.066C600.753+639.435+599.424+641.433+598.391+643.058C597.359+644.683+596.597+645.766+596.106+646.308C595.615+646.85+595.082+647.12+594.506+647.12C593.525+647.12+592.695+646.697+592.018+645.851C591.713+645.512+591.519+645.174+591.434+644.835C591.35+644.497+591.307+644.124+591.307+643.718C591.307+643.312+591.307+642.956+591.307+642.652C591.307+642.245+591.527+641.653+591.967+640.874C592.407+640.096+593.457+638.547+595.116+636.228C596.775+633.909+597.993+632.157+598.772+630.972C597.892+631.074+596.758+631.124+595.37+631.124C593.609+631.124+592.179+630.803+591.079+630.159C589.978+629.516+589.428+628.721+589.428+627.773C589.428+626.689+589.716+625.53+590.292+624.294C590.867+623.059+591.612+622.026+592.526+621.197C593.44+620.367+594.354+619.952+595.268+619.952C595.878+619.952+596.605+620.139+597.452+620.511L610.553+617.261C617.866+609.339+623.316+603.076+626.905+598.472C630.493+593.868+632.288+590.906+632.288+589.585C632.288+588.84+632.085+588.223+631.678+587.732C631.272+587.241+630.705+586.86+629.977+586.589C629.249+586.318+628.411+586.183+627.463+586.183C626.346+586.183+624.577+586.488+622.157+587.097C619.736+587.706+616.85+588.603+613.499+589.788C610.147+590.973+605.966+592.615+600.956+594.714C597.232+596.238+595.37+597.202+595.37+597.609C595.37+598.083+595.624+598.387+596.131+598.523C596.639+598.658+597.291+598.76+598.087+598.827C598.882+598.895+599.28+599.014+599.28+599.183C599.28+599.318+599.085+599.504+598.696+599.741C598.307+599.978+597.773+600.266+597.096+600.605Z" opacity="1" fill="#2f343c"/>
<path d="M679.787+625.741C674.878+632.241+671.145+636.863+668.589+639.605C666.033+642.347+663.943+643.718+662.318+643.718C661.031+643.718+659.847+643.185+658.763+642.118C657.68+641.052+656.842+639.613+656.25+637.802C655.657+635.991+655.361+634.053+655.361+631.988C655.361+630.633+655.488+629.415+655.742+628.331C655.996+627.248+656.478+626.055+657.189+624.751C657.9+623.448+658.839+622.034+660.007+620.511C661.175+618.988+662.606+617.261+664.298+615.331C665.314+614.146+666.169+613.148+666.863+612.335C667.557+611.523+668.234+610.973+668.894+610.685C669.554+610.397+670.629+610.253+672.119+610.253C673.202+610.253+674.235+610.397+675.216+610.685C676.198+610.973+676.689+611.269+676.689+611.574C676.689+612.183+676.19+613.283+675.191+614.874C674.192+616.465+672.584+618.404+670.367+620.689C668.149+622.974+665.585+625.217+662.673+627.417C662.03+629.415+661.709+630.938+661.709+631.988C661.709+633.443+662.267+634.171+663.384+634.171C663.791+634.171+664.468+633.824+665.416+633.13C666.363+632.436+667.963+631.099+670.214+629.118C672.466+627.138+674.488+625.386+676.283+623.863C677.603+622.712+679.135+620.993+680.878+618.708C682.622+616.423+684.035+614.705+685.119+613.554C687.624+610.913+689.334+609.195+690.248+608.4C691.162+607.604+692.042+607.206+692.888+607.206C693.701+607.206+694.251+607.46+694.539+607.968C694.826+608.476+694.97+609.508+694.97+611.066C694.97+611.777+694.903+612.352+694.767+612.792C694.632+613.232+694.352+613.799+693.929+614.493C693.506+615.187+692.651+616.465+691.365+618.327C690.078+620.189+688.555+622.39+686.794+624.929C685.847+626.283+685.017+627.764+684.306+629.372C683.595+630.98+683.24+632.191+683.24+633.003C683.24+634.764+683.934+635.644+685.322+635.644C686.473+635.644+687.81+635.17+689.334+634.222C690.857+633.274+693.193+631.564+696.341+629.093L696.341+632.495C692.38+636.152+689.452+638.809+687.556+640.468C685.66+642.127+684.018+643.379+682.63+644.226C681.242+645.072+679.922+645.495+678.669+645.495C675.826+645.495+674.404+643.803+674.404+640.417C674.404+639.131+674.827+637.396+675.673+635.212C676.52+633.029+677.891+629.872+679.787+625.741Z" opacity="1" fill="#2f343c"/>
<path d="M738.661+632.597L721.801+646.46C717.062+654.653+712.745+660.772+708.852+664.818C704.959+668.863+702.064+670.886+700.168+670.886C699.153+670.886+698.645+670.26+698.645+669.007C698.645+666.57+699.881+663.455+702.352+659.663C703.334+658.174+704.459+656.718+705.729+655.296C706.999+653.874+708.2+652.647+709.334+651.615C710.469+650.582+711.967+649.296+713.829+647.755C715.691+646.215+716.96+645.157+717.637+644.581C721.023+637.675+723.46+632.394+724.95+628.738C721.767+632.123+718.991+634.899+716.622+637.066C714.252+639.232+712.077+640.9+710.096+642.068C708.116+643.236+706.33+643.82+704.739+643.82C703.012+643.82+701.421+642.44+699.965+639.681C698.51+636.922+697.782+634.087+697.782+631.175C697.782+629.821+698.095+628.399+698.721+626.909C699.347+625.42+700.329+623.829+701.666+622.136C703.004+620.443+704.705+618.708+706.77+616.931C708.835+615.154+711.256+613.419+714.032+611.726C719.279+608.442+723.359+606.8+726.27+606.8C728.437+606.8+729.52+607.596+729.52+609.187C729.52+611.387+727.167+613.537+722.461+615.636C719.584+616.889+716.732+618.547+713.905+620.613C711.078+622.678+708.793+624.87+707.049+627.189C705.306+629.508+704.434+631.598+704.434+633.46C704.434+634.374+704.654+635.102+705.094+635.644C705.534+636.185+706.11+636.456+706.821+636.456C708.006+636.456+709.36+635.915+710.883+634.831C712.407+633.748+714.658+631.835+717.637+629.093C718.991+627.84+720.794+625.818+723.045+623.025C725.297+620.232+727.159+618.099+728.631+616.626C730.104+615.154+731.433+614.417+732.618+614.417C733.295+614.417+733.845+614.629+734.268+615.052C734.691+615.475+734.903+616.093+734.903+616.906C734.903+618.463+734.285+620.723+733.049+623.685C731.814+626.647+729.588+631.497+726.372+638.234L738.661+629.296L738.661+632.597Z" opacity="1" fill="#2f343c"/>
<path d="M773.363+629.093L773.363+632.495C771.128+634.527+769.334+635.881+767.98+636.558C766.626+637.235+764.679+637.506+762.14+637.37C757.739+642.584+753.863+645.191+750.511+645.191C748.615+645.191+746.889+644.564+745.331+643.312C743.774+642.059+742.53+640.35+741.599+638.183C740.668+636.016+740.203+633.596+740.203+630.921C740.203+628.754+740.922+626.351+742.361+623.71C743.8+621.07+745.662+618.607+747.947+616.322C750.232+614.036+752.678+612.191+755.285+610.786C757.891+609.381+760.312+608.679+762.546+608.679C764.137+608.679+765.39+608.924+766.304+609.415C767.218+609.906+767.675+610.592+767.675+611.472C767.675+612.149+767.286+612.928+766.507+613.808C767.794+614.079+768.674+614.527+769.148+615.154C769.622+615.78+769.859+616.922+769.859+618.581C769.859+620.206+769.478+622.254+768.716+624.726C767.955+627.197+766.913+629.516+765.593+631.683L766.507+632.597L767.269+632.597C767.844+632.597+768.412+632.453+768.97+632.165C769.529+631.878+770.028+631.573+770.468+631.251C770.908+630.93+771.873+630.21+773.363+629.093ZM762.902+615.738C760.092+617.43+757.688+618.962+755.691+620.333C753.693+621.704+752.001+623.092+750.613+624.497C749.225+625.902+748.294+627.316+747.82+628.738C746.973+632.529+746.55+634.577+746.55+634.882C746.55+637.116+748.107+638.234+751.222+638.234C752.678+638.234+755.115+636.981+758.535+634.476C757.959+632.885+757.671+631.361+757.671+629.906C757.671+627.773+758.111+625.598+758.992+623.38C759.872+621.163+761.175+618.615+762.902+615.738Z" opacity="1" fill="#2f343c"/>
</g>
</g>
</svg>
