<?xml version="1.0" encoding="UTF-8" standalone="no"?>
<!-- Created with Inkscape (http://www.inkscape.org/) -->

<svg
   width="154.17517mm"
   height="56.593075mm"
   viewBox="0 0 154.17517 56.593075"
   version="1.1"
   id="svg6835"
   inkscape:version="1.1.1 (3bf5ae0d25, 2021-09-20)"
   sodipodi:docname="logo-nav.svg"
   xmlns:inkscape="http://www.inkscape.org/namespaces/inkscape"
   xmlns:sodipodi="http://sodipodi.sourceforge.net/DTD/sodipodi-0.dtd"
   xmlns="http://www.w3.org/2000/svg"
   xmlns:svg="http://www.w3.org/2000/svg">
  <sodipodi:namedview
     id="namedview6837"
     pagecolor="#ffffff"
     bordercolor="#999999"
     borderopacity="1"
     inkscape:pageshadow="0"
     inkscape:pageopacity="0"
     inkscape:pagecheckerboard="0"
     inkscape:document-units="mm"
     showgrid="false"
     fit-margin-top="0"
     fit-margin-left="0"
     fit-margin-right="0"
     fit-margin-bottom="0"
     inkscape:zoom="0.44364478"
     inkscape:cx="397.84081"
     inkscape:cy="139.75145"
     inkscape:window-width="1920"
     inkscape:window-height="1019"
     inkscape:window-x="12"
     inkscape:window-y="10"
     inkscape:window-maximized="0"
     inkscape:current-layer="g6902" />
  <defs
     id="defs6832" />
  <g
     inkscape:label="Laag 1"
     inkscape:groupmode="layer"
     id="layer1"
     transform="translate(11.262821,-112.30172)">
    <g
       id="g6902"
       transform="translate(-210.85503,-1102.6396)">
      <g
         id="g938"
         transform="translate(-12.423197,696.6396)"
         style="fill:#ffbe58;fill-opacity:1">
        <g
           aria-label="U"
           id="text936"
           style="font-size:40.2705px;line-height:1.25;font-family:'Fugaz One';-inkscape-font-specification:'Fugaz One, Normal';letter-spacing:0px;word-spacing:0px;stroke-width:1.00677">
          <path
             d="m 280.67601,557.89647 q -3.18137,2.65786 -9.02059,2.65786 -5.83922,0 -8.09437,-2.69813 -1.61082,-1.85244 -1.61082,-5.11435 0,-1.44974 0.32217,-3.18137 l 3.26191,-18.5647 h 7.24869 l -3.26191,18.40362 q -0.16109,1.00676 -0.16109,2.09406 0,2.81894 3.38273,2.81894 2.01352,0 3.22164,-1.04703 1.20811,-1.04704 1.69136,-3.86597 l 3.26191,-18.40362 h 7.24869 l -3.26191,18.5647 q -1.00677,5.63787 -4.22841,8.33599 z"
             id="path7525" />
        </g>
      </g>
      <g
         aria-label="Q"
         id="text942"
         style="font-size:45.7313px;line-height:1.25;font-family:'Fugaz One';-inkscape-font-specification:'Fugaz One, Normal';letter-spacing:0px;word-spacing:0px;fill:#ff5758;stroke-width:1.14329">
        <path
           d="m 236.54379,1227.7238 q 11.06698,0 11.06698,8.5975 0,1.3719 -0.27439,2.9725 l -1.87498,10.5182 q -0.91463,5.3049 -3.7957,8.1859 -2.83534,2.8354 -7.95725,3.4299 0.50305,1.6463 2.42376,2.6067 1.96645,1.006 5.07618,1.006 l -0.22866,6.4939 q -3.47558,0 -6.128,-0.7774 -2.60668,-0.7775 -4.07008,-1.9208 -1.41767,-1.0975 -2.3323,-2.6066 -1.37194,-2.3323 -1.4634,-4.8933 -7.54566,-1.1433 -7.54566,-8.2774 0,-1.5091 0.32012,-3.2469 l 1.87498,-10.5182 q 2.05791,-11.57 14.9084,-11.57 z m -4.75605,26.7985 q 2.28656,0 3.6585,-1.1432 1.37194,-1.1433 1.92072,-4.2073 l 1.64632,-9.2377 q 0.1372,-0.8689 0.1372,-1.5549 0,-3.567 -3.84143,-3.567 -4.71033,0.091 -5.57922,5.1219 l -1.6006,9.2377 q -0.18292,1.0975 -0.18292,2.2865 0,3.064 3.84143,3.064 z"
           id="path7522" />
      </g>
      <path
         id="rect944"
         style="fill:#ff5758;stroke-width:0.0685311;stroke-linejoin:round"
         d="m 212.74886,1227.7068 h 22.9672 c 1.41705,0 2.55784,1.1408 2.55784,2.5578 0,1.4171 -1.14079,2.5579 -2.55784,2.5579 h -22.9672 c -1.41705,0 -2.55785,-1.1408 -2.55785,-2.5579 0,-1.417 1.1408,-2.5578 2.55785,-2.5578 z" />
      <path
         id="rect946"
         style="fill:#ff5758;stroke-width:0.0660158;stroke-linejoin:round"
         d="m 204.59302,1236.8833 h 20.94359 c 1.41704,0 2.55784,1.1408 2.55784,2.5578 0,1.4171 -1.1408,2.5579 -2.55784,2.5579 h -20.94359 c -1.41705,0 -2.55785,-1.1408 -2.55785,-2.5579 0,-1.417 1.1408,-2.5578 2.55785,-2.5578 z" />
      <path
         id="rect948"
         style="fill:#ff5758;stroke-width:0.0583317;stroke-linejoin:round"
         d="m 209.85892,1246.9862 h 15.23021 c 1.41705,0 2.55785,1.1408 2.55785,2.5579 0,1.417 -1.1408,2.5578 -2.55785,2.5578 h -15.23021 c -1.41705,0 -2.55785,-1.1408 -2.55785,-2.5578 0,-1.4171 1.1408,-2.5579 2.55785,-2.5579 z" />
      <path
         id="rect950"
         style="fill:#ff5758;stroke-width:0.0685311;stroke-linejoin:round"
         d="m 202.15006,1256.161 h 22.9672 c 1.41704,0 2.55784,1.1408 2.55784,2.5579 0,1.417 -1.1408,2.5578 -2.55784,2.5578 h -22.9672 c -1.41705,0 -2.55785,-1.1408 -2.55785,-2.5578 0,-1.4171 1.1408,-2.5579 2.55785,-2.5579 z" />
      <g
         id="g960"
         transform="translate(-28.298205,696.6396)"
         style="fill:#ffde59;fill-opacity:1">
        <g
           aria-label="I"
           id="text954"
           style="font-size:40.2705px;line-height:1.25;font-family:'Fugaz One';-inkscape-font-specification:'Fugaz One, Normal';letter-spacing:0px;word-spacing:0px;stroke-width:1.00677">
          <path
             d="m 315.39887,530.99578 -5.07408,28.99476 h -7.28896 l 5.11435,-28.99476 z"
             id="path7512" />
        </g>
        <g
           aria-label="I"
           id="text958"
           style="font-size:40.2705px;line-height:1.25;font-family:'Fugaz One';-inkscape-font-specification:'Fugaz One, Normal';letter-spacing:0px;word-spacing:0px;stroke-width:1.00677">
          <path
             d="m 315.39887,530.99578 -5.07408,28.99476 h -7.28896 l 5.11435,-28.99476 z"
             id="path7515" />
        </g>
      </g>
      <g
         id="g966"
         transform="translate(-14.539864,696.6396)"
         style="fill:#7ed758;fill-opacity:1">
        <g
           aria-label="Q"
           id="text964"
           style="font-size:40.2705px;line-height:1.25;font-family:'Fugaz One';-inkscape-font-specification:'Fugaz One, Normal';letter-spacing:0px;word-spacing:0px;stroke-width:1.00677">
          <path
             d="m 318.74133,530.71389 q 9.74546,0 9.74546,7.57085 0,1.20811 -0.24163,2.61758 l -1.65109,9.26222 q -0.80541,4.67138 -3.34245,7.20842 -2.49677,2.49677 -7.00707,3.02028 0.44298,1.44974 2.13434,2.29542 1.73163,0.88595 4.47003,0.88595 l -0.20136,5.71842 q -3.06055,0 -5.39624,-0.6846 -2.29542,-0.6846 -3.58408,-1.69136 -1.24838,-0.9665 -2.05379,-2.29542 -1.20812,-2.0538 -1.28866,-4.30895 -6.64463,-1.00676 -6.64463,-7.28896 0,-1.32892 0.28189,-2.8592 l 1.65109,-9.26222 q 1.81217,-10.18843 13.12819,-10.18843 z m -4.18814,23.59851 q 2.01353,0 3.22164,-1.00676 1.20812,-1.00677 1.69136,-3.70489 l 1.44974,-8.13464 q 0.12081,-0.76514 0.12081,-1.3692 0,-3.1411 -3.38272,-3.1411 -4.14786,0.0805 -4.913,4.5103 l -1.40947,8.13464 q -0.16108,0.96649 -0.16108,2.01353 0,2.69812 3.38272,2.69812 z"
             id="path7509" />
        </g>
      </g>
      <g
         id="g972"
         transform="translate(12.976809,696.6396)"
         style="fill:#37b6ff;fill-opacity:1">
        <g
           aria-label="R"
           id="text970"
           style="font-size:40.2705px;line-height:1.25;font-family:'Fugaz One';-inkscape-font-specification:'Fugaz One, Normal';letter-spacing:0px;word-spacing:0px;stroke-width:1.00677">
          <path
             d="m 319.82863,530.99578 q 4.59084,0 6.52382,2.01352 1.44974,1.53028 1.44974,3.86597 0,0.80541 -0.16108,1.69136 l -0.56379,3.1411 q -0.48325,2.61758 -1.69136,4.2284 -1.16785,1.61082 -2.61758,2.29542 l 3.66461,11.75899 h -8.13464 l -3.38272,-10.83276 h -2.49677 l -1.65109,10.83276 h -7.73194 l 5.11435,-28.99476 z m -2.53704,6.2822 h -3.02029 l -1.04703,7.00706 h 2.81893 q 2.13434,0 3.06056,-1.00676 0.92622,-1.04703 0.92622,-2.73839 0,-3.26191 -2.73839,-3.26191 z"
             id="path7506" />
        </g>
      </g>
      <path
         id="path974"
         style="fill:#9d98f1;stroke-width:0.509994;stroke-linejoin:round"
         inkscape:transform-center-x="4.5033284e-06"
         inkscape:transform-center-y="-1.5755001e-05"
         transform="matrix(0.26458333,0,0,0.26458333,-11.526003,-28.833104)"
         d="m 1358.611,4736.1239 -6.3529,21.1305 -8.0596,-20.5402 -22.0594,0.4876 17.0443,-14.0123 -7.2805,-20.8291 18.5935,11.88 17.5598,-13.3606 -5.5528,21.3546 18.133,12.5717 z" />
    </g>
  </g>
</svg>
